#N canvas 591 22 656 710 10;
#X floatatom 64 508 5 0 0 0 - - -;
#X obj 67 548 hsl 128 15 0 1024 0 0 empty empty empty -2 -8 0 10 -262144
-1 -1 0 1;
#X obj 64 848 gemwin;
#X msg 64 662 color \$1 \$1 \$1;
#X obj 137 732 loadbang;
#X text 167 661 Ambient light sensor data governs background color
of gem window.;
#X obj 64 602 expr ($f1 / 1024) * 1;
#X text 207 601 Scale numbers from 0 - 1024 to 0 - 1;
#X text 158 755 Click the toggle to reset the Gem window.;
#X obj 32 32 cnv 15 600 100 empty empty 1.c.ii.2_Sensor_to_GUI 20 12
0 14 -204800 -66577 0;
#X text 70 61 Receive analog data from an Arduino and display it as
a color in a GEM window.;
#X text 69 96 Assumes the attached Arduino is running the OneInOneOutASCII
sketch.;
#X obj 64 396 Arduino-server;
#X text 158 395 This abstraction encapsulates the serial port protocol
for sending and receiving messages to and from the Arduino.;
#X msg 66 245 /dev/tty.usbmodem1411;
#X obj 66 297 s port-name;
#X msg 66 271 /dev/ttyACM0;
#X msg 65 219 /dev/tty.usbmodem1411;
#X text 218 219 What serial port does your Arduino provide?;
#X text 214 246 Arduino Uno on MacBook Air right-side USB port;
#X text 213 271 Arduino Uno on Raspberry Pi;
#X obj 32 144 cnv 15 400 60 empty empty empty 20 12 0 14 -262130 -66577
0;
#X text 47 150 Choose the appropriate serial port below to connect
to the Arduino \, or edit a message to set the Arduino serial port
defined on your particular machine.;
#X obj 104 352 r port-name;
#X msg 212 351 close;
#X text 212 329 Click to manually close the serial port.;
#X obj 64 330 r Arduino-commands;
#X obj 64 484 route 0;
#X text 123 483 Receive message messages from analog pin 0;
#X text 115 847 manager for GEM window to show graphical output;
#X obj 64 452 route ana clk;
#X floatatom 287 545 12 0 0 0 - - -;
#X text 287 527 Arduino time in microseconds;
#X obj 80 695 print new-window-color;
#X msg 162 807 create \, 1;
#X msg 87 807 0 \, destroy;
#X obj 137 756 tgl 15 0 empty empty empty 17 7 0 10 -262144 -1 -1 1
1;
#X obj 137 778 route 0 1;
#X connect 0 0 1 0;
#X connect 1 0 6 0;
#X connect 3 0 2 0;
#X connect 3 0 33 0;
#X connect 4 0 36 0;
#X connect 6 0 3 0;
#X connect 12 0 30 0;
#X connect 14 0 15 0;
#X connect 16 0 15 0;
#X connect 17 0 15 0;
#X connect 23 0 12 1;
#X connect 24 0 12 2;
#X connect 26 0 12 0;
#X connect 27 0 0 0;
#X connect 30 0 27 0;
#X connect 30 1 31 0;
#X connect 34 0 2 0;
#X connect 35 0 2 0;
#X connect 36 0 37 0;
#X connect 37 0 35 0;
#X connect 37 1 34 0;
