#N canvas 4 22 1436 856 10;
#X obj 257 667 hsl 180 15 0 180 0 0 empty empty empty -2 -8 0 10 -262144
-1 -1 0 1;
#X obj 255 727 s osc-output;
#X obj 254 641 r pin4-servo;
#X text 248 578 Servo on PIN4;
#X msg 254 700 /servo/4 \$1;
#X msg 248 604 0;
#X msg 314 604 180;
#X msg 280 604 90;
#N canvas 608 52 673 665 Arduino-server 0;
#X obj 49 508 mrpeach/slipdec 65536;
#X obj 49 197 mrpeach/slipenc 65536;
#X obj 49 134 inlet;
#X obj 49 589 outlet;
#X obj 219 132 inlet;
#X msg 215 318 devices;
#X text 216 504 slipdec extracts an OSC data packet from a serial data
stream encoded using the SLIP protocol.;
#X text 211 196 slipenc encodes an OSC packet using the SLIP protocol
to delineate packet boundaries in the serial data stream. The argument
to slipenc sets a maximum packet size.;
#X text 274 314 Under OSX the Udoo SAM3X on the CN6 connector enumerates
as /dev/tty.SLAB_USBtoUART;
#X msg 217 376 close;
#X text 217 552 unpackOSC decodes the OSC data packet into a stream
of Pd messages \; see routeOSC for examples;
#X obj 49 439 comport 99 57600;
#X text 217 438 comport opens the specified serial port at the specified
baud rate when it the object is initialized \; using an invalid device
prevents it from opening the port until requestd;
#X msg 219 174 devicename \$1 \, baud 57600;
#X text 213 295 Click to print out the list of available serial devices.
;
#X text 216 357 Click to manually close the serial port.;
#X text 46 69 The left inlet receives Pd lists specifying OSC messages.
;
#X text 49 30 Subpatch to manage the OSC messaging to and from the
Arduino over a serial port.;
#X text 216 102 The right inlet receives a message with a symbol naming
the serial port.;
#X obj 219 153 list;
#X obj 49 165 osc/packOSC;
#X obj 49 550 osc/unpackOSC;
#X connect 0 0 21 0;
#X connect 1 0 11 0;
#X connect 2 0 20 0;
#X connect 4 0 19 0;
#X connect 5 0 11 0;
#X connect 9 0 11 0;
#X connect 11 0 0 0;
#X connect 13 0 11 0;
#X connect 19 0 13 0;
#X connect 20 0 1 0;
#X connect 21 0 3 0;
#X restore 118 99 pd Arduino-server;
#X text 232 91 This subpatch encapsulates the serial port protocol
for sending and receiving OSC messages to and from the Arduino.;
#X obj 217 65 r port-name;
#X obj 118 66 r osc-output;
#X text 785 300 Arduino Due from OS X laptop;
#X obj 635 326 s port-name;
#X msg 636 300 /dev/tty.usbmodemfd121;
#X obj 118 127 osc/routeOSC /a/0;
#X obj 121 158 hsl 128 15 0 1024 0 0 empty empty empty -2 -8 0 10 -262144
-1 -1 8483 1;
#X obj 808 143 list-len;
#X obj 687 126 zl len;
#X obj 103 280 tgl 15 0 empty empty empty 17 7 0 10 -262144 -1 -1 0
1;
#X floatatom 134 651 5 0 0 0 - - -;
#X obj 103 331 bng 15 250 50 0 empty empty empty 17 7 0 10 -262144
-1 -1;
#X obj 103 385 delta;
#X floatatom 103 410 5 0 0 0 - - -;
#X obj 103 361 f;
#X obj 103 455 route 0 1;
#X obj 134 580 f;
#X obj 107 527 t f b;
#X obj 134 615 +;
#X msg 149 550 90;
#X obj 118 219 / 2;
#X obj 118 190 +;
#X obj 150 218 / 2;
#X obj 150 189 +;
#X obj 180 218 / 2;
#X obj 180 189 +;
#X obj 210 218 / 2;
#X obj 210 189 +;
#X obj 121 248 hsl 128 15 0 1024 0 0 empty empty empty -2 -8 0 10 -262144
-1 -1 8489 1;
#X obj 103 304 metro 50;
#X obj 103 432 > 0;
#X obj 134 676 % 60;
#X msg 103 488 10;
#X msg 137 487 -10;
#X text 423 309 Doesn't work yet.;
#X connect 0 0 4 0;
#X connect 2 0 0 0;
#X connect 4 0 1 0;
#X connect 5 0 0 0;
#X connect 6 0 0 0;
#X connect 7 0 0 0;
#X connect 8 0 15 0;
#X connect 10 0 8 1;
#X connect 11 0 8 0;
#X connect 14 0 13 0;
#X connect 15 0 16 0;
#X connect 16 0 31 0;
#X connect 19 0 39 0;
#X connect 20 0 41 0;
#X connect 21 0 24 0;
#X connect 22 0 23 0;
#X connect 23 0 40 0;
#X connect 24 0 22 0;
#X connect 25 0 42 0;
#X connect 25 1 43 0;
#X connect 26 0 28 0;
#X connect 27 0 28 1;
#X connect 27 1 26 0;
#X connect 28 0 20 0;
#X connect 28 0 26 1;
#X connect 29 0 26 1;
#X connect 30 0 31 1;
#X connect 30 0 33 0;
#X connect 31 0 30 0;
#X connect 32 0 33 1;
#X connect 32 0 35 0;
#X connect 33 0 32 0;
#X connect 34 0 35 1;
#X connect 34 0 37 0;
#X connect 35 0 34 0;
#X connect 36 0 37 1;
#X connect 36 0 38 0;
#X connect 37 0 36 0;
#X connect 38 0 24 1;
#X connect 39 0 21 0;
#X connect 40 0 25 0;
#X connect 41 0 0 0;
#X connect 42 0 27 0;
#X connect 43 0 27 0;
