#N canvas 0 22 510 463 10;
#X obj 214 36 inlet;
#X obj 254 242 osc~;
#X obj 296 294 *~;
#X obj 253 210 line~;
#X obj 352 204 line~;
#X msg 253 181 \$1 10;
#X msg 351 173 \$1 10;
#X obj 236 149 mtof;
#X obj 297 366 throw~ sumSound;
#X obj 310 36 inlet;
#X floatatom 171 235 5 0 0 0 - - -, f 5;
#X floatatom 432 175 5 0 0 0 - - -, f 5;
#X connect 0 0 7 0;
#X connect 1 0 2 0;
#X connect 2 0 8 0;
#X connect 3 0 1 0;
#X connect 4 0 2 1;
#X connect 5 0 3 0;
#X connect 6 0 4 0;
#X connect 7 0 5 0;
#X connect 7 0 10 0;
#X connect 9 0 6 0;
#X connect 9 0 11 0;
