#N canvas 175 203 875 907 10;
#N canvas 0 22 450 278 (subpatch) 0;
#X array \$0-myNotes 16 float 3;
#A 0 66 82 66 52 66 78 66 55 0 0 0 0 0 0 0 0;
#X coords 0 127 16 0 200 127 1 0 0;
#X restore 97 93 graph;
#X text 49 56 1;
#X obj 200 765 *~ 0.3;
#X obj 190 824 dac~;
#X text 78 57 here's our melody array:;
#X text 58 394 3;
#X text 77 394 now let's play it with some more exciting timing;
#X obj 519 -8 tgl 25 0 empty empty Enable_Audio 30 12 0 12 -4034 -1
-1 1 1;
#X msg 519 23 \; pd dsp \$1;
#X obj 33 -122 cnv 15 600 100 empty empty 1.c.iii.4_Music_Rhythm 20
12 0 14 -204800 -66577 0;
#X obj 359 -4 cnv 15 150 20 empty empty empty 20 12 0 14 -4034 -66577
0;
#X text 363 -3 Enable audio output -->;
#X text 390 -39 must turn on DSP for audio to work in PD;
#X text 247 765 amplitude scaling;
#X text 68 -93 A demonstration of a table-driven sequencer which plays
a series of specified pitches in sequence \, each note with an specific
rhythmic duration.;
#N canvas 112 65 450 278 (subpatch) 0;
#X array \$0-myDurations 16 float 3;
#A 0 36 36 38 44 51 62 74 102 0 0 0 0 0 0 0 0;
#X coords 0 127 16 0 200 127 1 0 0;
#X restore 97 242 graph;
#X floatatom 175 515 5 0 0 0 - - -, f 5;
#X floatatom 174 578 5 0 0 0 - - -, f 5;
#X obj 175 461 f;
#X obj 223 461 + 1;
#X obj 200 728 osc~;
#X text 269 482 <--- don't go over 23!;
#X floatatom 201 700 5 0 0 0 - - -, f 5;
#X obj 174 549 tabread \$0-myNotes;
#X obj 293 544 tabread \$0-myDurations;
#X obj 174 607 mtof;
#X obj 293 598 * 5;
#X obj 162 702 del;
#X text 221 616;
#X obj 174 639 t b f;
#X msg 64 660 stop;
#X obj 132 742 bng 15 250 50 0 empty empty empty 17 7 0 10 -262144
-1 -1;
#X obj 223 483 mod 8;
#X obj 170 416 bng 15 250 50 0 empty empty empty 17 7 0 10 -262144
-1 -1;
#X floatatom 304 645 5 0 0 0 - - -, f 5;
#X connect 2 0 3 1;
#X connect 2 0 3 0;
#X connect 7 0 8 0;
#X connect 16 0 23 0;
#X connect 16 0 24 0;
#X connect 17 0 25 0;
#X connect 18 0 19 0;
#X connect 18 0 16 0;
#X connect 19 0 32 0;
#X connect 20 0 2 0;
#X connect 22 0 20 0;
#X connect 23 0 17 0;
#X connect 24 0 26 0;
#X connect 25 0 29 0;
#X connect 26 0 27 1;
#X connect 26 0 34 0;
#X connect 27 0 31 0;
#X connect 29 0 27 0;
#X connect 29 1 22 0;
#X connect 30 0 27 0;
#X connect 31 0 18 0;
#X connect 32 0 18 1;
#X connect 33 0 18 0;
