#N canvas 722 22 718 856 10;
#X obj 62 173 bng 15 250 50 0 empty empty empty 17 7 0 10 -262144 -1
-1;
#X obj 62 215 bng 15 250 50 0 empty empty empty 17 7 0 10 -262144 -1
-1;
#X obj 136 173 bng 15 250 50 0 empty empty empty 17 7 0 10 -262144
-1 -1;
#X floatatom 217 173 5 0 0 0 - - -;
#X msg 136 209 3;
#X floatatom 136 242 5 0 0 0 - - -;
#X obj 217 208 + 1;
#X floatatom 217 241 5 0 0 0 - - -;
#X obj 301 200 metro;
#X obj 301 170 tgl 15 0 empty empty empty 17 7 0 10 -262144 -1 -1 0
1;
#X floatatom 328 169 5 0 0 0 - - -;
#X obj 301 228 bng 15 250 50 0 empty empty empty 17 7 0 10 -262144
-1 -1;
#X obj 453 229 bng 15 250 50 0 empty empty empty 17 7 0 10 -262144
-1 -1;
#X floatatom 504 171 5 0 0 0 - - -;
#X obj 453 199 delay 200;
#X obj 453 171 bng 15 250 50 0 empty empty empty 17 7 0 10 -262144
-1 -1;
#X obj 69 574 dsp;
#X obj 69 524 tgl 30 0 empty empty empty 17 7 0 10 -262144 -1 -1 1
1;
#X floatatom 381 461 5 0 0 0 - - -;
#X obj 381 488 osc~ 440;
#X obj 401 524 dac~;
#X obj 381 559 scope~ 130 130 256 3 128 -1 1 0 0 0 0 102 255 51 135
135 135 0;
#X text 63 486 Toggle DSP (digital signal processing);
#X text 380 697 The Scope~ object is a virtual oscilloscope that lets
you visualize signals.;
#X text 378 420 This argument controls the frequency of the oscillator.
;
#X text 544 150 The number of milliseconds to delay the control signal
by.;
#X text 445 516 Notice that the patch cord here is darker. This indicates
an audio signal.;
#X text 285 125 The metro object sends out bangs at a regular interval.
;
#X connect 0 0 1 0;
#X connect 2 0 4 0;
#X connect 3 0 6 0;
#X connect 4 0 5 0;
#X connect 6 0 7 0;
#X connect 8 0 11 0;
#X connect 9 0 8 0;
#X connect 10 0 8 1;
#X connect 13 0 14 1;
#X connect 14 0 12 0;
#X connect 15 0 14 0;
#X connect 17 0 16 0;
#X connect 18 0 19 0;
#X connect 19 0 20 1;
#X connect 19 0 20 0;
#X connect 19 0 21 0;
