#N canvas 722 22 718 856 10;
#X obj 132 173 bng 15 250 50 0 empty empty empty 17 7 0 10 -262144
-1 -1;
#X obj 132 215 bng 15 250 50 0 empty empty empty 17 7 0 10 -262144
-1 -1;
#X obj 166 173 bng 15 250 50 0 empty empty empty 17 7 0 10 -262144
-1 -1;
#X floatatom 217 173 5 0 0 0 - - -;
#X msg 166 209 3;
#X floatatom 166 242 5 0 0 0 - - -;
#X obj 217 208 + 1;
#X floatatom 217 241 5 0 0 0 - - -;
#X obj 270 202 metro;
#X obj 270 172 tgl 15 0 empty empty empty 17 7 0 10 -262144 -1 -1 1
1;
#X floatatom 297 171 5 0 0 0 - - -;
#X obj 270 230 bng 15 250 50 0 empty empty empty 17 7 0 10 -262144
-1 -1;
#X obj 270 287 bng 15 250 50 0 empty empty empty 17 7 0 10 -262144
-1 -1;
#X floatatom 321 230 5 0 0 0 - - -;
#X obj 270 257 delay 200;
#X connect 0 0 1 0;
#X connect 2 0 4 0;
#X connect 3 0 6 0;
#X connect 4 0 5 0;
#X connect 6 0 7 0;
#X connect 8 0 11 0;
#X connect 9 0 8 0;
#X connect 10 0 8 1;
#X connect 11 0 14 0;
#X connect 13 0 14 1;
#X connect 14 0 12 0;
