#N canvas 0 22 835 756 10;
#X obj 169 93 inlet;
#X obj 244 81 inlet;
#X obj 409 75 inlet;
#X obj 477 83 inlet;
#X obj 45 91 inlet;
#X obj 241 664 outlet;
#X obj 365 152 bng 15 250 50 0 empty empty empty 17 7 0 10 -262144
-1 -1;
#X obj 392 246 unpack 1 1;
#X obj 249 159 bng 15 250 50 0 empty empty empty 17 7 0 10 -262144
-1 -1;
#X obj 235 241 unpack 1 1;
#X obj 87 290 -;
#X obj 86 238 unpack 1 1;
#X obj 155 460 /;
#X obj 223 504 *;
#X obj 250 568 +;
#X obj 239 414 * -1;
#X obj 438 436 * -1;
#X obj 235 200 pack \$1 \$2;
#X obj 392 197 pack \$3 \$4;
#X obj 563 112 loadbang;
#X obj 399 380 -;
#X obj 242 375 -;
#X floatatom 454 315 5 0 0 0 - - -, f 5;
#X floatatom 509 313 5 0 0 0 - - -, f 5;
#X floatatom 558 313 5 0 0 0 - - -, f 5;
#X floatatom 609 312 5 0 0 0 - - -, f 5;
#X obj 86 194 pack 1 \$1;
#X connect 0 0 17 0;
#X connect 0 0 26 1;
#X connect 1 0 8 0;
#X connect 1 0 17 1;
#X connect 2 0 18 0;
#X connect 3 0 6 0;
#X connect 3 0 18 1;
#X connect 4 0 26 0;
#X connect 6 0 18 0;
#X connect 7 0 20 0;
#X connect 7 0 24 0;
#X connect 7 0 14 1;
#X connect 7 1 20 1;
#X connect 7 1 25 0;
#X connect 8 0 17 0;
#X connect 9 0 21 0;
#X connect 9 0 22 0;
#X connect 9 1 21 1;
#X connect 9 1 23 0;
#X connect 10 0 12 0;
#X connect 11 0 10 0;
#X connect 11 1 10 1;
#X connect 12 0 13 0;
#X connect 13 0 14 0;
#X connect 14 0 5 0;
#X connect 15 0 12 1;
#X connect 16 0 13 1;
#X connect 17 0 9 0;
#X connect 18 0 7 0;
#X connect 19 0 6 0;
#X connect 19 0 8 0;
#X connect 20 0 16 0;
#X connect 21 0 15 0;
#X connect 26 0 11 0;
