#N canvas 5 22 1436 856 10;
#X msg 366 92 /dev/tty.usbmodemfd121;
#N canvas 608 52 673 665 Arduino-server 0;
#X obj 49 508 mrpeach/slipdec 65536;
#X obj 49 197 mrpeach/slipenc 65536;
#X obj 49 134 inlet;
#X obj 49 589 outlet;
#X obj 219 132 inlet;
#X msg 215 318 devices;
#X text 216 504 slipdec extracts an OSC data packet from a serial data
stream encoded using the SLIP protocol.;
#X text 211 196 slipenc encodes an OSC packet using the SLIP protocol
to delineate packet boundaries in the serial data stream. The argument
to slipenc sets a maximum packet size.;
#X text 274 314 Under OSX the Udoo SAM3X on the CN6 connector enumerates
as /dev/tty.SLAB_USBtoUART;
#X msg 217 376 close;
#X text 217 552 unpackOSC decodes the OSC data packet into a stream
of Pd messages \; see routeOSC for examples;
#X obj 49 439 comport 99 57600;
#X text 217 438 comport opens the specified serial port at the specified
baud rate when it the object is initialized \; using an invalid device
prevents it from opening the port until requestd;
#X msg 219 174 devicename \$1 \, baud 57600;
#X text 213 295 Click to print out the list of available serial devices.
;
#X text 216 357 Click to manually close the serial port.;
#X text 46 69 The left inlet receives Pd lists specifying OSC messages.
;
#X text 49 30 Subpatch to manage the OSC messaging to and from the
Arduino over a serial port.;
#X text 216 102 The right inlet receives a message with a symbol naming
the serial port.;
#X obj 219 153 list;
#X obj 49 165 osc/packOSC;
#X obj 49 550 osc/unpackOSC;
#X connect 0 0 21 0;
#X connect 1 0 11 0;
#X connect 2 0 20 0;
#X connect 4 0 19 0;
#X connect 5 0 11 0;
#X connect 9 0 11 0;
#X connect 11 0 0 0;
#X connect 13 0 11 0;
#X connect 19 0 13 0;
#X connect 20 0 1 0;
#X connect 21 0 3 0;
#X restore 267 148 pd Arduino-server;
#X text 384 142 This subpatch encapsulates the serial port protocol
for sending and receiving OSC messages to and from the Arduino.;
#X obj 267 188 osc/routeOSC /a/0;
#X obj 267 116 r osc-output;
#X obj 508 681 dac~;
#X obj 508 634 freeverb~;
#X obj 493 385 osc~;
#X obj 533 385 osc~;
#X obj 573 385 osc~;
#X obj 613 385 osc~;
#X obj 653 385 osc~;
#X obj 693 385 osc~;
#X floatatom 958 284 5 0 0 0 - - -;
#X obj 958 189 ftom;
#N canvas 0 22 450 278 (subpatch) 0;
#X array array1 11 float 3;
#A 0 0 0 2 2 4 4 7 7 9 9 9;
#X coords 0 0 11 11 200 140 1 0 0;
#X restore 919 490 graph;
#X obj 1142 525 listfunnel;
#X obj 1142 583 unpack 1 1;
#X obj 1142 612 tabwrite array1;
#X obj 1142 555 list-rev;
#X obj 958 315 % 12;
#X obj 958 343 tabread array1;
#X obj 916 286 / 12;
#X obj 916 315 int;
#X obj 916 366 +;
#X floatatom 916 397 5 0 0 0 - - -;
#X obj 958 161 r rawpitch;
#X obj 494 283 r p;
#X obj 916 445 s p;
#X obj 497 306 hsl 30 15 1 10 0 0 empty empty empty -2 -8 0 10 -262144
-1 -1 0 1;
#X floatatom 493 355 5 0 0 0 - - -;
#X obj 534 283 r p;
#X floatatom 533 355 5 0 0 0 - - -;
#X obj 574 283 r p;
#X floatatom 573 355 5 0 0 0 - - -;
#X obj 614 283 r p;
#X floatatom 613 355 5 0 0 0 - - -;
#X obj 654 283 r p;
#X floatatom 653 355 5 0 0 0 - - -;
#X obj 694 283 r p;
#X floatatom 693 355 5 0 0 0 - - -;
#X obj 513 491 hsl 30 15 1 10 0 0 empty empty empty -2 -8 0 10 -262144
-1 -1 2300 1;
#X obj 553 491 hsl 30 15 1 10 0 0 empty empty empty -2 -8 0 10 -262144
-1 -1 2300 1;
#X obj 593 491 hsl 30 15 1 10 0 0 empty empty empty -2 -8 0 10 -262144
-1 -1 1600 1;
#X obj 633 491 hsl 30 15 1 10 0 0 empty empty empty -2 -8 0 10 -262144
-1 -1 1800 1;
#X obj 673 491 hsl 30 15 1 10 0 0 empty empty empty -2 -8 0 10 -262144
-1 -1 1400 1;
#X obj 713 491 hsl 30 15 1 10 0 0 empty empty empty -2 -8 0 10 -262144
-1 -1 1200 1;
#X obj 509 515 *~;
#X obj 549 515 *~;
#X obj 589 515 *~;
#X obj 629 515 *~;
#X obj 669 515 *~;
#X obj 709 515 *~;
#X obj 493 329 *;
#X obj 533 329 *;
#X obj 573 329 *;
#X obj 613 329 *;
#X obj 653 329 *;
#X obj 693 329 *;
#X obj 958 218 moses 10;
#X obj 916 420 mtof;
#X obj 509 462 delay~;
#X floatatom 508 409 5 0 0 0 - - -;
#X obj 508 436 * 44100;
#X text 519 84 Arduino Due serial port. Change this to match the serial
port you choose in the Arduino IDE.;
#X obj 270 225 hsl 100 15 0 1024 0 0 empty empty empty 70 -8 0 10 -262144
-1 -1 4940 1;
#X floatatom 353 364 5 0 0 0 - - -;
#X obj 197 256 metro 50;
#X obj 197 229 tgl 15 0 empty empty empty 17 7 0 10 -262144 -1 -1 1
1;
#X obj 268 294 +;
#X obj 268 323 / 2;
#X floatatom 267 255 5 0 0 0 - - -;
#X obj 298 294 +;
#X obj 298 323 / 2;
#X obj 328 294 +;
#X obj 328 323 / 2;
#X obj 353 389 s rawpitch;
#X obj 268 354 delta;
#X obj 268 382 abs;
#X floatatom 268 437 5 0 0 0 - - -;
#X obj 268 498 line~;
#X msg 268 466 \$1 20;
#X obj 268 524 s~ amp;
#X obj 536 557 r~ amp;
#X obj 508 558 *~;
#X obj 197 201 loadbang;
#X text 385 189 Receive OSC messages from analog pin 0;
#X obj 214 499 line;
#X obj 214 523 s wet;
#X obj 658 593 r wet;
#X msg 658 617 roomsize \$1;
#X msg 609 581 wet 0.3;
#X obj 268 408 / 300;
#X obj 508 587 tanh~;
#X obj 549 462 delay~;
#X floatatom 548 409 5 0 0 0 - - -;
#X obj 548 436 * 44100;
#X obj 589 462 delay~;
#X floatatom 588 409 5 0 0 0 - - -;
#X obj 588 436 * 44100;
#X obj 629 462 delay~;
#X floatatom 628 409 5 0 0 0 - - -;
#X obj 628 436 * 44100;
#X obj 669 462 delay~;
#X floatatom 668 409 5 0 0 0 - - -;
#X obj 668 436 * 44100;
#X obj 709 462 delay~;
#X floatatom 708 409 5 0 0 0 - - -;
#X obj 708 436 * 44100;
#X obj 508 655 freeverb~;
#X msg 1142 496 0 0 2 2 4 4 7 7 9 9 9 9;
#X obj 533 305 * 2;
#X obj 573 305 * 3;
#X obj 614 305 * 4;
#X obj 654 305 * 5;
#X obj 694 305 * 6;
#X obj 916 343 * 6;
#X connect 0 0 1 1;
#X connect 1 0 3 0;
#X connect 3 0 65 0;
#X connect 4 0 1 0;
#X connect 6 0 109 0;
#X connect 6 1 109 1;
#X connect 7 0 61 0;
#X connect 8 0 94 0;
#X connect 9 0 97 0;
#X connect 10 0 100 0;
#X connect 11 0 103 0;
#X connect 12 0 106 0;
#X connect 13 0 20 0;
#X connect 13 0 22 0;
#X connect 14 0 59 0;
#X connect 16 0 19 0;
#X connect 17 0 18 0;
#X connect 17 1 18 1;
#X connect 19 0 17 0;
#X connect 20 0 21 0;
#X connect 21 0 24 1;
#X connect 22 0 23 0;
#X connect 23 0 116 0;
#X connect 24 0 25 0;
#X connect 25 0 60 0;
#X connect 26 0 14 0;
#X connect 27 0 53 0;
#X connect 29 0 53 1;
#X connect 29 0 111 0;
#X connect 29 0 112 0;
#X connect 29 0 113 0;
#X connect 29 0 114 0;
#X connect 29 0 115 0;
#X connect 30 0 7 0;
#X connect 31 0 54 0;
#X connect 32 0 8 0;
#X connect 33 0 55 0;
#X connect 34 0 9 0;
#X connect 35 0 56 0;
#X connect 36 0 10 0;
#X connect 37 0 57 0;
#X connect 38 0 11 0;
#X connect 39 0 58 0;
#X connect 40 0 12 0;
#X connect 41 0 47 1;
#X connect 42 0 48 1;
#X connect 43 0 49 1;
#X connect 44 0 50 1;
#X connect 45 0 51 1;
#X connect 46 0 52 1;
#X connect 47 0 84 0;
#X connect 48 0 84 0;
#X connect 49 0 84 0;
#X connect 50 0 84 0;
#X connect 51 0 84 0;
#X connect 52 0 84 0;
#X connect 53 0 30 0;
#X connect 54 0 32 0;
#X connect 55 0 34 0;
#X connect 56 0 36 0;
#X connect 57 0 38 0;
#X connect 58 0 40 0;
#X connect 59 1 13 0;
#X connect 60 0 28 0;
#X connect 61 0 47 0;
#X connect 62 0 63 0;
#X connect 63 0 61 1;
#X connect 65 0 71 0;
#X connect 66 0 76 0;
#X connect 67 0 71 0;
#X connect 68 0 67 0;
#X connect 69 0 70 0;
#X connect 70 0 69 1;
#X connect 70 0 72 0;
#X connect 70 0 77 0;
#X connect 71 0 69 0;
#X connect 72 0 73 0;
#X connect 73 0 72 1;
#X connect 73 0 74 0;
#X connect 74 0 75 0;
#X connect 75 0 74 1;
#X connect 75 0 66 0;
#X connect 77 0 78 0;
#X connect 78 0 92 0;
#X connect 79 0 81 0;
#X connect 80 0 82 0;
#X connect 81 0 80 0;
#X connect 81 0 87 0;
#X connect 83 0 84 1;
#X connect 84 0 93 0;
#X connect 85 0 68 0;
#X connect 87 0 88 0;
#X connect 89 0 90 0;
#X connect 90 0 6 0;
#X connect 91 0 6 0;
#X connect 92 0 79 0;
#X connect 93 0 6 0;
#X connect 94 0 48 0;
#X connect 95 0 96 0;
#X connect 96 0 94 1;
#X connect 97 0 49 0;
#X connect 98 0 99 0;
#X connect 99 0 97 1;
#X connect 100 0 50 0;
#X connect 101 0 102 0;
#X connect 102 0 100 1;
#X connect 103 0 51 0;
#X connect 104 0 105 0;
#X connect 105 0 103 1;
#X connect 106 0 52 0;
#X connect 107 0 108 0;
#X connect 108 0 106 1;
#X connect 109 0 5 0;
#X connect 109 1 5 1;
#X connect 110 0 16 0;
#X connect 111 0 54 1;
#X connect 112 0 55 1;
#X connect 113 0 56 1;
#X connect 114 0 57 1;
#X connect 115 0 58 1;
#X connect 116 0 24 0;
