#N canvas 615 72 661 624 10;
#X obj 68 695 *~;
#X obj 68 740 dac~;
#X floatatom 318 404 5 0 0 0 - - -;
#X obj 318 486 *~;
#X floatatom 462 458 10 0 0 0 - - -;
#X floatatom 86 248 5 0 0 0 - - -;
#X obj 86 351 *~;
#X floatatom 101 317 10 0 0 0 - - -;
#X floatatom 70 99 5 0 0 0 - - -;
#X obj 71 183 mtof~;
#X obj 43 33 inlet;
#X obj 71 435 osc~;
#X obj 71 389 +~;
#X text 120 248 modulation frequency in Hz;
#X text 166 318 modulation depth in Hz;
#X obj 86 282 osc~;
#X text 330 366 tremolo rate in Hz;
#X obj 318 427 osc~;
#X text 459 418 tremolo depth (unit);
#X obj 119 36 hsl 128 15 0 127 0 0 empty empty empty -2 -8 0 10 -262144
-1 -1 0 1;
#X floatatom 385 561 5 0 1 0 - - -;
#X text 384 519 base amplitude (unit);
#X obj 321 383 hsl 128 15 0 20 0 0 empty empty empty -2 -8 0 10 -262144
-1 -1 3810 1;
#X obj 465 438 hsl 128 15 0 1 0 0 empty empty empty -2 -8 0 10 -262144
-1 -1 3810 1;
#X obj 388 538 hsl 128 15 0 1 0 0 empty empty empty -2 -8 0 10 -262144
-1 -1 8890 1;
#X obj 318 583 *~;
#X obj 318 513 +~ 1;
#X floatatom 242 196 5 0 0 0 - - -;
#X obj 120 181 mtof;
#X obj 120 224 *;
#X obj 439 632 vline~;
#X obj 289 662 *~;
#X obj 38 -161 cnv 15 600 100 empty empty Frequency_Modulation_Synthesizer
20 12 0 14 -204800 -66577 0;
#X obj 43 67 t b f;
#X msg 439 606 1 \$1 \, 0 \$2 \$1;
#X text 488 578 attack \, duration (in ms);
#X text 488 632 envelope generator;
#X msg 439 578 20 250;
#X msg 84 34 64;
#X obj 149 277 *;
#X text 107 99 MIDI note value for carrier frequency;
#X text 236 218 modulation rate multiplier;
#X floatatom 440 195 5 0 0 0 - - -;
#X text 440 215 modulation depth multiplier;
#X msg 318 346 6;
#X msg 462 399 0.3;
#X obj 318 322 loadbang;
#X obj 242 143 loadbang;
#X text 36 -48 The left inlet accepts a MIDI note number and plays
a percussive sound starting when the note number is received. The FM
synthesis parameters are computed relative to the carrier frequency
determined from the MIDI note.;
#X obj 440 142 loadbang;
#X obj 462 376 loadbang;
#X obj 385 480 loadbang;
#X msg 385 502 0.7;
#X obj 242 169 f \$1;
#X obj 440 170 f \$2;
#X text 59 -132 Creation arguments: mod_rate_multiplier mod_depth_multiplier
;
#X connect 0 0 1 0;
#X connect 0 0 1 1;
#X connect 2 0 17 0;
#X connect 3 0 26 0;
#X connect 4 0 3 1;
#X connect 5 0 15 0;
#X connect 6 0 12 1;
#X connect 7 0 6 1;
#X connect 8 0 9 0;
#X connect 8 0 28 0;
#X connect 9 0 12 0;
#X connect 10 0 33 0;
#X connect 11 0 0 0;
#X connect 12 0 11 0;
#X connect 15 0 6 0;
#X connect 17 0 3 0;
#X connect 19 0 33 0;
#X connect 20 0 25 1;
#X connect 22 0 2 0;
#X connect 23 0 4 0;
#X connect 24 0 20 0;
#X connect 25 0 31 0;
#X connect 26 0 25 0;
#X connect 27 0 29 1;
#X connect 28 0 29 0;
#X connect 28 0 39 0;
#X connect 29 0 5 0;
#X connect 30 0 31 1;
#X connect 31 0 0 1;
#X connect 33 0 37 0;
#X connect 33 1 8 0;
#X connect 34 0 30 0;
#X connect 37 0 34 0;
#X connect 38 0 33 0;
#X connect 39 0 7 0;
#X connect 42 0 39 1;
#X connect 44 0 22 0;
#X connect 45 0 23 0;
#X connect 46 0 44 0;
#X connect 47 0 53 0;
#X connect 49 0 54 0;
#X connect 50 0 45 0;
#X connect 51 0 52 0;
#X connect 52 0 24 0;
#X connect 53 0 27 0;
#X connect 54 0 42 0;
