#N canvas 259 66 635 527 10;
#X obj 21 19 cnv 15 600 80 empty empty Performance_Controls 20 12 0
14 -204800 -66577 0;
#X obj 56 147 vsl 15 100 0 100 0 0 loudness set-loudness Loudness -20
-9 0 12 -260097 -1 -1 0 0;
#X obj 44 275 hradio 15 1 0 12 tonic set-tonic Tonic 0 -8 0 12 -262130
-1 -1 0;
#X text 89 47 This can be also used by an instrument during testing
to simulate messages from the conductor.;
#X text 224 23 Conductor performance control interface.;
#X text 90 79 OSC messages are emitted to [receive osc-controls];
#N canvas 829 247 517 514 tempo_controls 0;
#X obj 296 330 metro 1000;
#X obj 110 122 hsl 128 15 30 280 0 1 tempo set-tempo Tempo_in_BPM -2
-8 0 12 -203904 -1 -1 1524 0;
#X obj 105 175 tgl 30 0 empty empty Play/Stop 35 15 0 12 -4034 -1 -1
0 1;
#X obj 353 293 expr 60000 / $f1;
#X floatatom 107 145 5 0 0 1 Tempo - -;
#X obj 243 204 bng 15 250 50 0 empty empty Beat 20 7 0 12 -260097 -1
-1;
#X msg 30 91 60;
#X obj 30 68 loadbang;
#X obj 73 286 counter;
#X floatatom 243 227 5 0 0 1 Beat - -;
#X msg 185 383 send /beat \$1;
#X obj 105 221 bng 25 250 50 0 empty empty Reset 30 12 0 12 -258113
-1 -1;
#X msg 321 195 send /tempo \$1;
#X obj 59 122 bng 15 250 50 0 empty empty empty 17 7 0 10 -262144 -1
-1;
#X obj 321 217 s osc-controls;
#X obj 185 408 s osc-controls;
#X connect 0 0 5 0;
#X connect 1 0 4 0;
#X connect 2 0 0 0;
#X connect 3 0 0 1;
#X connect 4 0 3 0;
#X connect 4 0 12 0;
#X connect 5 0 8 0;
#X connect 6 0 1 0;
#X connect 7 0 6 0;
#X connect 8 0 9 0;
#X connect 9 0 10 0;
#X connect 10 0 15 0;
#X connect 11 0 8 2;
#X connect 12 0 14 0;
#X connect 13 0 1 0;
#X coords 0 -1 1 1 200 150 2 100 100;
#X restore 37 316 pd tempo_controls;
#N canvas 1262 101 352 512 messaging 0;
#X obj 86 85 r symmetry;
#X msg 86 114 send /symmetry \$1;
#X text 85 42 message plumbing;
#X obj 91 329 r tonic;
#X obj 91 358 + 64;
#X floatatom 91 387 5 0 0 0 - - -;
#X msg 91 415 send /tonic \$1;
#X text 91 302 a MIDI note number;
#X obj 91 444 s osc-controls;
#X obj 88 253 s osc-controls;
#X obj 88 195 r loudness;
#X msg 88 224 send /loudness \$1;
#X obj 86 143 s osc-controls;
#X connect 0 0 1 0;
#X connect 1 0 12 0;
#X connect 3 0 4 0;
#X connect 4 0 5 0;
#X connect 5 0 6 0;
#X connect 6 0 8 0;
#X connect 10 0 11 0;
#X connect 11 0 9 0;
#X restore 38 476 pd messaging;
#X obj 261 108 cnv 15 5 400 empty empty Presets 20 12 0 14 -204800
-66577 0;
#X text 290 414 Resend all parameters;
#X msg 297 157 \; set-loudness 0 \; set-tonic 64;
#X msg 429 212 \; set-loudness 100 \; set-tonic 76;
#X msg 298 212 \; set-loudness 50 \; set-tonic 71;
#X msg 293 433 \; set-loudness bang \; set-tonic bang \; set-tempo
bang \;;
