#N canvas 300 22 715 668 10;
#N canvas 708 22 728 689 client 0;
#X obj 266 539 mrpeach/udpsend;
#X obj 411 506 mrpeach/packOSC;
#X obj 110 254 tgl 15 0 empty empty connected 17 7 0 10 -257985 -1
-1 0 1;
#X obj 104 189 bng 25 250 50 0 empty empty Connect 30 12 0 12 -4034
-1 -1;
#X msg 178 441 disconnect;
#X msg 206 390 send /goodbye;
#X msg 264 342 connect 128.237.239.178 20001;
#X text 102 104 Conductor IP Address;
#X obj 103 218 bng 25 250 50 0 empty empty Disconnect 30 12 0 12 -258113
-1 -1;
#X floatatom 103 277 5 0 0 0 - - -;
#X text 165 277 Message Count;
#X text 273 300 Specify the conductor contact port number.;
#X obj 425 423 r msgs-to-conductor;
#X obj 266 667 s msgs-to-conductor;
#X obj -4 55 inlet;
#X text 103 142 User Name;
#X symbolatom 106 122 20 0 0 0 - - -;
#X symbolatom 105 159 20 0 0 0 - - -;
#X obj 105 28 loadbang;
#X obj 104 9 bng 15 250 50 0 empty empty empty 17 7 0 10 -262144 -1
-1;
#X obj 292 497 print client;
#X msg 264 318 set connect \$1 20001;
#X msg 106 579 set send /hello \$1;
#X msg 266 640 send /hello student;
#X obj 176 331 t b b;
#X msg 105 49 symbol student;
#X obj 266 469 t a a;
#X text 162 27 initialization;
#X obj 411 461 t a a;
#X obj 438 484 print msg-to-conductor;
#X obj 437 666 metro 5000;
#X msg 41 349 set send /vote \$1;
#X msg 43 402 send /vote 66.6667;
#X obj 437 604 delay 1000;
#X obj 437 647 tgl 15 0 empty empty empty 17 7 0 10 -262144 -1 -1 0
1;
#X msg 437 626 1;
#X obj 266 607 select 1;
#X msg 470 627 0;
#X text 508 665 vote timer;
#X obj 437 692 s send-vote;
#X obj 55 376 r send-vote;
#X text 505 606 vote timer turn-on delay;
#X floatatom 103 297 5 0 0 0 - - -;
#X text 167 298 Vote;
#X text -5 -46 A numeric vote value on the inlet will be periodically
reported to the conductor.;
#X floatatom 367 893 3 0 0 0 - - -;
#X floatatom 394 893 3 0 0 0 - - -;
#X floatatom 421 893 3 0 0 0 - - -;
#X floatatom 448 893 3 0 0 0 - - -;
#X floatatom 491 894 5 0 0 0 - - -;
#X obj 367 867 unpack 0 0 0 0 0;
#X floatatom 246 814 9 0 0 0 - - -;
#X obj 427 840 tgl 15 0 empty empty empty 17 7 0 10 -4034 -1 -1 0 1
;
#X floatatom 306 840 9 0 0 0 - - -;
#X text 139 814 bytes received:;
#X text 154 838 total bytes received:;
#X text 324 892 from:;
#X obj 246 781 route received total from multicast;
#X msg 105 721 status;
#X obj 105 897 mrpeach/unpackOSC;
#X obj 121 930 bng 15 250 50 0 empty empty empty 17 7 0 10 -262144
-1 -1;
#X obj 105 748 mrpeach/udpreceive 20000;
#X text 257 747 Specify the instrument message port number.;
#X obj 121 967 f 0;
#X obj 150 967 + 1;
#X obj 105 1017 outlet;
#X text 104 1036 The outlet emits received OSC messages as Pd lists.
;
#X text 152 720 show port statistics (for debugging);
#X text 118 946 message counter;
#X obj 250 948 r osc-controls;
#X text 249 931 Offline controller messages.;
#X obj 250 973 list split 1;
#X text 334 973 Trim off the 'send';
#X msg 106 71 symbol 128.237.239.178;
#X connect 0 0 2 0;
#X connect 0 0 36 0;
#X connect 1 0 0 0;
#X connect 3 0 6 0;
#X connect 4 0 26 0;
#X connect 5 0 28 0;
#X connect 6 0 26 0;
#X connect 8 0 24 0;
#X connect 12 0 28 0;
#X connect 14 0 42 0;
#X connect 16 0 21 0;
#X connect 17 0 22 0;
#X connect 18 0 25 0;
#X connect 18 0 73 0;
#X connect 19 0 18 0;
#X connect 21 0 6 0;
#X connect 22 0 23 0;
#X connect 23 0 13 0;
#X connect 24 0 4 0;
#X connect 24 1 5 0;
#X connect 25 0 17 0;
#X connect 26 0 0 0;
#X connect 26 1 20 0;
#X connect 28 0 1 0;
#X connect 28 1 29 0;
#X connect 30 0 39 0;
#X connect 31 0 32 0;
#X connect 32 0 28 0;
#X connect 33 0 35 0;
#X connect 34 0 30 0;
#X connect 35 0 34 0;
#X connect 36 0 23 0;
#X connect 36 0 33 0;
#X connect 36 1 37 0;
#X connect 37 0 34 0;
#X connect 40 0 32 0;
#X connect 42 0 31 0;
#X connect 50 0 45 0;
#X connect 50 1 46 0;
#X connect 50 2 47 0;
#X connect 50 3 48 0;
#X connect 50 4 49 0;
#X connect 57 0 51 0;
#X connect 57 1 53 0;
#X connect 57 2 50 0;
#X connect 57 3 52 0;
#X connect 58 0 61 0;
#X connect 59 0 65 0;
#X connect 59 0 60 0;
#X connect 60 0 63 0;
#X connect 61 0 59 0;
#X connect 61 1 57 0;
#X connect 63 0 64 0;
#X connect 63 0 9 0;
#X connect 64 0 63 1;
#X connect 69 0 71 0;
#X connect 71 1 65 0;
#X connect 73 0 16 0;
#X coords 0 -1 1 1 150 220 2 100 100;
#X restore 65 68 pd client;
#X obj 68 38 hsl 100 15 0 100 0 0 empty empty Vote -2 -8 0 12 -204786
-1 -1 0 0;
#X obj 33 -122 cnv 15 600 120 empty empty Networked_Instrument 20 12
0 14 -204800 -66577 0;
#X text 237 -118 This patch is a template for a networked instrument
controller. Please enter the network address of the 'conductor' computer
and your name. Then selecting Connect will contact the conductor and
request participation in the performance. Several kinds of messages
can be received to affect your performance. You may also set a numeric
vote value which will be periodically transmitted back to the conductor.
;
#X obj 216 86 cnv 15 360 40 empty empty empty 20 12 0 14 -262130 -66577
0;
#X text 226 92 Please specify the conductor IP address and your user
name (a single word).;
#X floatatom 128 374 5 0 0 0 - - -;
#X floatatom 191 374 5 0 0 0 - - -;
#X floatatom 254 374 5 0 0 0 - - -;
#X floatatom 317 376 5 0 0 0 - - -;
#X obj 380 376 print unrecognized-conductor-message;
#X floatatom 65 374 5 0 0 0 - - -;
#X obj 229 221 cnv 15 360 40 empty empty empty 20 12 0 14 -262130 -66577
0;
#X obj 528 231 controls;
#X text 236 232 For offline testing click to open the controls:;
#X obj 30 414 cnv 15 600 25 empty empty demo_code_below_---_replace_with_your_instrument_code
20 12 0 12 -204800 -66577 0;
#X obj 354 504 mtof;
#X obj 341 653 osc~;
#X obj 345 689 noise~;
#X obj 310 834 +~;
#X obj 391 713 vline~;
#X obj 374 744 *~;
#X obj 307 565 osc~;
#X obj 210 710 vline~;
#X msg 211 686 1 100 0 \, 0 500 100;
#X obj 310 738 *~;
#X obj 566 450 pddp/dsp;
#X obj 390 452 loadbang;
#X msg 389 481 64;
#X obj 344 627 +~;
#X obj 249 653 bng 15 250 50 0 empty empty empty 17 7 0 10 -262144
-1 -1;
#X obj 420 623 line;
#X obj 496 616 line~;
#X obj 327 595 *~;
#X msg 392 689 0.2 10 0 \, 0 300 10;
#X obj 236 499 expr 3 + 0.01*$f1;
#X obj 304 541 * 3;
#X obj 114 641 delay;
#X obj 44 478 expr 60000 / $f1;
#X floatatom 43 513 5 0 0 0 - - -;
#X text 80 512 ms per beat;
#X obj 167 536 bng 15 250 50 0 empty empty empty 17 7 0 10 -262144
-1 -1;
#X obj 42 544 * 0.25;
#X obj 184 640 delay;
#X floatatom 140 619 5 0 0 0 - - -;
#X floatatom 200 617 5 0 0 0 - - -;
#X obj 53 584 expr $f2 * (0.4 - 0.0015*$f1);
#X obj 332 777 *~;
#X obj 223 535 * 0.01;
#X obj 369 836 hsl 128 15 0 1 0 1 empty empty Volume -2 -8 0 12 -204786
-1 -1 2540 1;
#X obj 309 869 *~;
#X obj 307 903 dac~;
#X obj 454 508 hsl 128 15 -24 24 0 1 empty empty Note -2 -8 0 12 -204786
-1 -1 2500 1;
#X obj 451 531 int;
#X floatatom 471 555 5 0 0 0 - - -;
#X obj 422 555 t b f;
#X obj 349 477 + -24;
#X obj 366 862 nbx 5 14 -1e+37 1e+37 0 0 empty empty empty 0 -8 0 10
-262144 -1 -1 0.2 256;
#X obj 367 791 loadbang;
#X obj 436 766 expr 0.2 + 0.8*$f1;
#X obj 478 731 tgl 15 0 empty empty empty 17 7 0 10 -262144 -1 -1 0
1;
#X text 498 731 simulate solo;
#X obj 435 811 line;
#X msg 436 790 \$1 500;
#X obj 65 339 mrpeach/routeOSC /onoff /tempo /beat /loudness /tonic
;
#X obj 37 375 tgl 15 0 empty empty empty 17 7 0 10 -262144 -1 -1 0
1;
#X connect 0 0 64 0;
#X connect 1 0 0 0;
#X connect 6 0 38 0;
#X connect 7 0 41 0;
#X connect 8 0 48 0;
#X connect 8 0 35 0;
#X connect 8 0 46 0;
#X connect 9 0 56 0;
#X connect 11 0 59 0;
#X connect 16 0 29 1;
#X connect 16 0 33 1;
#X connect 16 0 36 0;
#X connect 17 0 25 0;
#X connect 18 0 21 0;
#X connect 19 0 50 0;
#X connect 20 0 21 1;
#X connect 21 0 47 1;
#X connect 22 0 33 0;
#X connect 23 0 25 1;
#X connect 24 0 23 0;
#X connect 25 0 19 0;
#X connect 27 0 28 0;
#X connect 28 0 9 0;
#X connect 29 0 17 0;
#X connect 30 0 24 0;
#X connect 30 0 34 0;
#X connect 33 0 29 0;
#X connect 34 0 20 0;
#X connect 35 0 36 1;
#X connect 36 0 22 0;
#X connect 37 0 24 0;
#X connect 38 0 39 0;
#X connect 39 0 42 0;
#X connect 39 0 46 1;
#X connect 41 0 37 0;
#X connect 41 0 43 0;
#X connect 41 0 34 0;
#X connect 42 0 44 0;
#X connect 43 0 34 0;
#X connect 44 0 37 1;
#X connect 45 0 43 1;
#X connect 46 0 45 0;
#X connect 47 0 19 1;
#X connect 48 0 47 0;
#X connect 49 0 57 0;
#X connect 50 0 51 0;
#X connect 50 0 51 1;
#X connect 52 0 53 0;
#X connect 53 0 56 1;
#X connect 53 0 55 0;
#X connect 53 0 54 0;
#X connect 55 0 9 0;
#X connect 55 1 56 1;
#X connect 56 0 16 0;
#X connect 57 0 50 1;
#X connect 58 0 49 0;
#X connect 59 0 63 0;
#X connect 60 0 59 0;
#X connect 62 0 49 0;
#X connect 63 0 62 0;
#X connect 64 0 11 0;
#X connect 64 1 6 0;
#X connect 64 2 7 0;
#X connect 64 3 8 0;
#X connect 64 4 9 0;
#X connect 64 5 10 0;
#X connect 65 0 11 0;
