#N canvas 661 22 653 693 10;
#N canvas 165 22 728 689 client 0;
#X obj 266 539 mrpeach/udpsend;
#X obj 411 506 mrpeach/packOSC;
#X obj 110 254 tgl 15 0 empty empty connected 17 7 0 10 -257985 -1
-1 0 1;
#X obj 104 189 bng 25 250 50 0 empty empty Connect 30 12 0 12 -4034
-1 -1;
#X msg 178 441 disconnect;
#X msg 206 390 send /goodbye;
#X msg 264 342 connect 128.237.224.56 20001;
#X text 102 104 Conductor IP Address;
#X obj 103 218 bng 25 250 50 0 empty empty Disconnect 30 12 0 12 -258113
-1 -1;
#X floatatom 103 277 5 0 0 0 - - -;
#X text 165 277 Message Count;
#X text 273 300 Specify the conductor contact port number.;
#X obj 425 423 r msgs-to-conductor;
#X obj 266 667 s msgs-to-conductor;
#X obj -4 55 inlet;
#X text 103 142 User Name;
#X symbolatom 106 122 20 0 0 0 - - -;
#X symbolatom 105 159 20 0 0 0 - - -;
#X obj 105 28 loadbang;
#X obj 104 9 bng 15 250 50 0 empty empty empty 17 7 0 10 -262144 -1
-1;
#X obj 292 497 print client;
#X msg 264 318 set connect \$1 20001;
#X msg 106 579 set send /hello \$1;
#X msg 266 640 send /hello student;
#X obj 176 331 t b b;
#X msg 106 71 symbol 128.237.224.56;
#X msg 105 49 symbol student;
#X obj 266 469 t a a;
#X text 162 27 initialization;
#X obj 411 461 t a a;
#X obj 438 484 print msg-to-conductor;
#X obj 437 666 metro 5000;
#X msg 41 349 set send /vote \$1;
#X msg 43 402 send /vote 66.6667;
#X obj 437 604 delay 1000;
#X obj 437 647 tgl 15 0 empty empty empty 17 7 0 10 -262144 -1 -1 0
1;
#X msg 437 626 1;
#X obj 266 607 select 1;
#X msg 470 627 0;
#X text 508 665 vote timer;
#X obj 437 692 s send-vote;
#X obj 55 376 r send-vote;
#X text 505 606 vote timer turn-on delay;
#X floatatom 103 297 5 0 0 0 - - -;
#X text 167 298 Vote;
#X text -5 -46 A numeric vote value on the inlet will be periodically
reported to the conductor.;
#X floatatom 367 893 3 0 0 0 - - -;
#X floatatom 394 893 3 0 0 0 - - -;
#X floatatom 421 893 3 0 0 0 - - -;
#X floatatom 448 893 3 0 0 0 - - -;
#X floatatom 491 894 5 0 0 0 - - -;
#X obj 367 867 unpack 0 0 0 0 0;
#X floatatom 246 814 9 0 0 0 - - -;
#X obj 427 840 tgl 15 0 empty empty empty 17 7 0 10 -4034 -1 -1 0 1
;
#X floatatom 306 840 9 0 0 0 - - -;
#X text 139 814 bytes received:;
#X text 154 838 total bytes received:;
#X text 324 892 from:;
#X obj 246 781 route received total from multicast;
#X msg 105 721 status;
#X obj 105 897 mrpeach/unpackOSC;
#X obj 121 930 bng 15 250 50 0 empty empty empty 17 7 0 10 -262144
-1 -1;
#X obj 105 748 mrpeach/udpreceive 20000;
#X text 257 747 Specify the instrument message port number.;
#X obj 121 967 f 0;
#X obj 150 967 + 1;
#X obj 105 1017 outlet;
#X text 104 1036 The outlet emits received OSC messages as Pd lists.
;
#X text 152 720 show port statistics (for debugging);
#X text 118 946 message counter;
#X connect 0 0 2 0;
#X connect 0 0 37 0;
#X connect 1 0 0 0;
#X connect 3 0 6 0;
#X connect 4 0 27 0;
#X connect 5 0 29 0;
#X connect 6 0 27 0;
#X connect 8 0 24 0;
#X connect 12 0 29 0;
#X connect 14 0 43 0;
#X connect 16 0 21 0;
#X connect 17 0 22 0;
#X connect 18 0 26 0;
#X connect 18 0 25 0;
#X connect 19 0 18 0;
#X connect 21 0 6 0;
#X connect 22 0 23 0;
#X connect 23 0 13 0;
#X connect 24 0 4 0;
#X connect 24 1 5 0;
#X connect 25 0 16 0;
#X connect 26 0 17 0;
#X connect 27 0 0 0;
#X connect 27 1 20 0;
#X connect 29 0 1 0;
#X connect 29 1 30 0;
#X connect 31 0 40 0;
#X connect 32 0 33 0;
#X connect 33 0 29 0;
#X connect 34 0 36 0;
#X connect 35 0 31 0;
#X connect 36 0 35 0;
#X connect 37 0 23 0;
#X connect 37 0 34 0;
#X connect 37 1 38 0;
#X connect 38 0 35 0;
#X connect 41 0 33 0;
#X connect 43 0 32 0;
#X connect 51 0 46 0;
#X connect 51 1 47 0;
#X connect 51 2 48 0;
#X connect 51 3 49 0;
#X connect 51 4 50 0;
#X connect 58 0 52 0;
#X connect 58 1 54 0;
#X connect 58 2 51 0;
#X connect 58 3 53 0;
#X connect 59 0 62 0;
#X connect 60 0 66 0;
#X connect 60 0 61 0;
#X connect 61 0 64 0;
#X connect 62 0 60 0;
#X connect 62 1 58 0;
#X connect 64 0 65 0;
#X connect 64 0 9 0;
#X connect 65 0 64 1;
#X coords 0 -1 1 1 150 220 2 100 100;
#X restore 65 68 pd client;
#X obj 68 38 hsl 100 15 0 100 0 0 empty empty Vote -2 -8 0 12 -204786
-1 -1 0 0;
#X obj 33 -122 cnv 15 600 120 empty empty Networked_Instrument 20 12
0 14 -204800 -66577 0;
#X text 237 -118 This patch is a template for a networked instrument
controller. Please enter the network address of the 'conductor' computer
and your name. Then selecting Connect will contact the conductor and
request participation in the performance. Several kinds of messages
can be received to affect your performance. You may also set a numeric
vote value which will be periodically transmitted back to the conductor.
;
#X obj 216 86 cnv 15 360 40 empty empty empty 20 12 0 14 -262130 -66577
0;
#X text 226 92 Please specify the conductor IP address and your user
name (a single word).;
#X floatatom 65 375 5 0 0 0 - - -;
#X floatatom 124 375 5 0 0 0 - - -;
#X floatatom 180 375 5 0 0 0 - - -;
#X floatatom 295 376 5 0 0 0 - - -;
#X floatatom 238 375 5 0 0 0 - - -;
#X obj 410 376 print unrecognized-conductor-message;
#X obj 65 340 mrpeach/routeOSC /tempo /beat /density /symmetry /tonality
/solo;
#X floatatom 352 376 5 0 0 0 - - -;
#X connect 0 0 12 0;
#X connect 1 0 0 0;
#X connect 12 0 6 0;
#X connect 12 1 7 0;
#X connect 12 2 8 0;
#X connect 12 3 10 0;
#X connect 12 4 9 0;
#X connect 12 5 13 0;
#X connect 12 6 11 0;
