#N canvas 925 -944 652 611 10;
#X text 81 485 Analog values range from 0 - 1024;
#X floatatom 40 487 5 0 0 0 - - -;
#X obj 43 527 hsl 128 15 0 1024 0 0 empty empty empty -2 -8 0 10 -262144
-1 -1 10300 1;
#X obj 8 11 cnv 15 600 100 empty empty 1.c.ii.4_Sensor_to_Actuator
20 12 0 14 -204800 -66577 0;
#X text 45 75 Assumes the attached Arduino is running the OneInOneOutASCII
sketch.;
#X obj 40 375 Arduino-server;
#X text 134 374 This abstraction encapsulates the serial port protocol
for sending and receiving messages to and from the Arduino.;
#X msg 42 224 /dev/tty.usbmodem1411;
#X obj 42 276 s port-name;
#X msg 42 250 /dev/ttyACM0;
#X msg 41 198 /dev/tty.usbmodem1411;
#X text 194 198 What serial port does your Arduino provide?;
#X text 190 225 Arduino Uno on MacBook Air right-side USB port;
#X text 189 250 Arduino Uno on Raspberry Pi;
#X obj 8 123 cnv 15 400 60 empty empty empty 20 12 0 14 -262130 -66577
0;
#X text 23 129 Choose the appropriate serial port below to connect
to the Arduino \, or edit a message to set the Arduino serial port
defined on your particular machine.;
#X obj 80 331 r port-name;
#X msg 188 330 close;
#X text 188 308 Click to manually close the serial port.;
#X obj 40 309 r Arduino-commands;
#X obj 40 463 route 0;
#X text 99 462 Receive message messages from analog pin 0;
#X obj 40 431 route ana clk;
#X floatatom 263 524 12 0 0 0 - - -;
#X text 263 506 Arduino time in microseconds;
#X obj 40 585 int;
#X obj 40 665 s Arduino-commands;
#X text 293 570 comment;
#X text 46 40 Receive analog data from an Arduino and display it as
a physical actuator position output.;
#X msg 40 621 svo 4 \$1;
#X text 66 585 Servo outputs are between 0 and 180;
#X obj 40 558 expr (($f1*180) / 1024);
#X obj 58 645 print Servo-output;
#X connect 1 0 2 0;
#X connect 2 0 31 0;
#X connect 5 0 22 0;
#X connect 7 0 8 0;
#X connect 9 0 8 0;
#X connect 10 0 8 0;
#X connect 16 0 5 1;
#X connect 17 0 5 2;
#X connect 19 0 5 0;
#X connect 20 0 1 0;
#X connect 22 0 20 0;
#X connect 22 1 23 0;
#X connect 25 0 29 0;
#X connect 29 0 26 0;
#X connect 29 0 32 0;
#X connect 31 0 25 0;
