#N canvas 813 212 474 493 10;
#X obj 33 139 wiringPi_gpio 1 1;
#X obj 33 110 bng 15 250 50 0 empty empty empty 17 7 0 10 -262144 -1
-1;
#X floatatom 33 169 5 0 0 0 - - -, f 5;
#X obj 65 107 metro 20;
#X obj 65 74 tgl 15 0 empty empty empty 17 7 0 10 -262144 -1 -1 1 1
;
#X connect 0 0 2 0;
#X connect 1 0 0 0;
#X connect 3 0 0 0;
#X connect 4 0 3 0;
