#N canvas 690 22 718 856 10;
#X msg 108 53 devicename /dev/cu.usbmodemfa131 \, baud 57600;
#X obj 108 79 comport 57600;
#X msg 48 53 devices;
#X obj 107 242 print out;
#X obj 107 191 zl group 100;
#X obj 108 111 sel 10;
#X obj 141 152 makefilename %c;
#X connect 0 0 1 0;
#X connect 1 0 5 0;
#X connect 2 0 1 0;
#X connect 4 0 3 0;
#X connect 5 0 4 0;
#X connect 5 1 6 0;
#X connect 6 0 4 0;
