#N canvas -9 22 1086 564 10;
#X obj 64 205 bng 15 250 50 0 empty empty empty 17 7 0 10 -262144 -1
-1;
#X obj 64 247 bng 15 250 50 0 empty empty empty 17 7 0 10 -262144 -1
-1;
#X obj 138 205 bng 15 250 50 0 empty empty empty 17 7 0 10 -262144
-1 -1;
#X floatatom 219 205 5 0 0 0 - - -, f 5;
#X msg 138 241 3;
#X floatatom 138 274 5 0 0 0 - - -, f 5;
#X obj 219 240 + 1;
#X floatatom 219 273 5 0 0 0 - - -, f 5;
#X obj 67 340 metro;
#X obj 67 309 tgl 15 0 empty empty empty 17 7 0 10 -262144 -1 -1 0
1;
#X floatatom 94 309 5 0 0 0 - - -, f 5;
#X obj 67 368 bng 15 250 50 0 empty empty empty 17 7 0 10 -262144 -1
-1;
#X obj 67 468 bng 15 250 50 0 empty empty empty 17 7 0 10 -262144 -1
-1;
#X floatatom 118 410 5 0 0 0 - - -, f 5;
#X obj 67 438 delay 200;
#X obj 67 410 bng 15 250 50 0 empty empty empty 17 7 0 10 -262144 -1
-1;
#X floatatom 617 334 5 0 0 0 - - -, f 5;
#X obj 617 390 osc~ 440;
#X obj 607 490 dac~;
#X text 63 165 Here are some examples of "EVENTS";
#X text 132 307 <<< metronome interval in miliseconds here;
#X text 157 409 <<< delay interval in miliseconds here;
#X msg 648 204 \; pd dsp 1;
#X msg 649 242 \; pd dsp 0;
#X obj 573 448 tgl 15 0 empty empty empty 17 7 0 10 -262144 -1 -1 0
1;
#X text 59 71 EVENTS are a-synchronous (they happen at irregular intervals)
\, they are triggored by user interaction (e.g. clicking and dragging
on a slider) or by PureData objects that are time-based (e.g. 'metro'
\, 'delay');
#X text 590 74 SIGNALS are synchronous (they happen at regular intervals)
\, and run at the Audio Sample Rate (e.g. 44.1 KHz \, or 96 KHz \,
or ...);
#X text 589 143 SIGNAL Objects in PureData have names that end with
a ~ (looks like an audio waveform). This objects only function if the
DSP (Digital Signal Processing) engine is ON:;
#X text 709 211 <-Click to start DSP;
#X text 34 22 PureData programs are made up of EVENTS and SIGNALS;
#X text 656 333 <<< change this number to change the frequency of the
oscilator;
#X text 709 249 <-Click to stop DSP;
#X text 597 518 NOTE: Don't Forget to take the patch out of "Edit Mode"
in order to interact with objects;
#X text 682 388 <<< this objects synthesizes a sinusoidal waveform
;
#X text 638 430 <<< NOTE: SIGNAL patch chords are thicker/blacker than
EVENT patch chords;
#X connect 0 0 1 0;
#X connect 2 0 4 0;
#X connect 3 0 6 0;
#X connect 4 0 5 0;
#X connect 6 0 7 0;
#X connect 8 0 11 0;
#X connect 9 0 8 0;
#X connect 10 0 8 1;
#X connect 13 0 14 1;
#X connect 14 0 12 0;
#X connect 15 0 14 0;
#X connect 16 0 17 0;
#X connect 17 0 18 1;
#X connect 17 0 18 0;
#X connect 24 0 18 0;
