#N canvas 76 30 1114 638 10;
#X obj -23 29 cnv 15 600 100 empty empty 2.a.ii.3_many-to-one-mapping
20 12 0 14 -204800 -66577 0;
#X obj 385 134 cnv 15 400 130 empty empty empty 20 12 0 14 -262130
-66577 0;
#X text 14 57 Mapping many inputs to many outputs;
#X obj 122 181 bng 15 250 50 0 empty empty empty 17 7 0 10 -262144
-1 -1;
#X floatatom 105 451 5 0 0 0 - - -, f 5;
#X floatatom 143 451 5 0 0 0 - - -, f 5;
#X floatatom 181 451 5 0 0 0 - - -, f 5;
#X floatatom 219 451 5 0 0 0 - - -, f 5;
#X floatatom 259 451 5 0 0 0 - - -, f 5;
#X floatatom 297 451 5 0 0 0 - - -, f 5;
#X text 218 470 pitch;
#X text 259 472 roll;
#X text 301 471 yaw;
#X text 108 470 x;
#X text 151 471 y;
#X text 189 471 z;
#X obj 192 686 osc~;
#X floatatom 258 542 5 0 0 0 - - -, f 5;
#X floatatom 124 541 5 0 0 0 - - -, f 5;
#X obj 124 507 pc.scale 0 127 0.5 0;
#X obj 124 688 line~;
#X msg 124 569 \$1 20;
#X obj 192 738 *~;
#X obj 184 766 dac~;
#X obj 259 575 / 12;
#X obj 303 574 % 12;
#X floatatom 303 607 5 0 0 0 - - -, f 5;
#X floatatom 259 633 5 0 0 0 - - -, f 5;
#X obj 259 604 int;
#N canvas 0 22 450 278 (subpatch) 0;
#X array scales 12 float 3;
#A 0 0 0 2 2 4 4 7.11428 7.11428 7.11428 9 9 0;
#X coords 0 12 11 0 100 50 1 0 0;
#X restore 399 634 graph;
#X obj 303 633 tabread scales;
#X obj 288 702 +;
#X obj 259 660 * 12;
#X obj 288 731 mtof;
#X obj 258 508 pc.scale 0 127 40 100;
#X text 398 690 use this table to limit the number of notes to a "pentatonic
scale" (http://en.wikipedia.org/wiki/Pentatonic_scale);
#X text 395 509 map "roll" to frequency;
#X text -30 509 map "pitch" to amplitude;
#X floatatom 354 448 5 0 0 0 - - -, f 5;
#X floatatom 392 448 5 0 0 0 - - -, f 5;
#X floatatom 430 448 5 0 0 0 - - -, f 5;
#X obj 352 399 unpack 1 1 1;
#X floatatom 483 450 5 0 0 0 - - -, f 5;
#X floatatom 521 450 5 0 0 0 - - -, f 5;
#X floatatom 559 450 5 0 0 0 - - -, f 5;
#X text 486 469 x;
#X text 529 470 y;
#X text 567 470 z;
#X obj 481 401 unpack 1 1 1;
#X text 349 470 pitch;
#X text 395 470 roll;
#X text 438 470 yaw;
#X obj 103 402 unpack 1 1 1;
#X obj 202 402 unpack 1 1 1;
#X obj -6 330 print;
#X obj 102 290 spigot;
#X obj 135 266 tgl 15 0 empty empty empty 17 7 0 10 -262144 -1 -1 0
1;
#X obj 349 301 spigot;
#X obj 382 277 tgl 15 0 empty empty empty 17 7 0 10 -262144 -1 -1 0
1;
#X obj 588 305 spigot;
#X obj 621 281 tgl 15 0 empty empty empty 17 7 0 10 -262144 -1 -1 0
1;
#X obj 831 305 spigot;
#X obj 864 281 tgl 15 0 empty empty empty 17 7 0 10 -262144 -1 -1 0
1;
#X obj -5 296 spigot;
#X obj 28 272 tgl 15 0 empty empty empty 17 7 0 10 -262144 -1 -1 0
1;
#X text -34 354 See what is coming in;
#X text 601 379 etc....;
#X text 840 387 etc....;
#X text 400 140 For working with live streams of gesture data \, we'll
use mobile phones (loaded with many sensors) and wireless transmission
(with iOS or Android Apps that use the OpenSoundControl--OSC for short--to
send numbers from the phone to your computer.;
#X text 399 277 andOSC App (Android);
#X text 155 264 "Control" app (iOS/Andrpod_;
#X text 637 282 "TouchOSC" app (iOS/Android);
#X text 881 281 "OSChook" app (Andoird);
#X text -23 651 use "line~" to change amplitudes smoothly and avoid
clicks;
#X obj 584 52 tgl 25 0 empty empty Enable_Audio 30 12 0 12 -4034 -1
-1 0 1;
#X msg 584 83 \; pd dsp \$1;
#X text 428 57 Enable audio output -->;
#X text 19 239 print what you are receiving;
#X obj 158 146 udpreceive 10000;
#X obj 158 192 unpackOSC;
#X text 398 214 this patch requires 3rd party exteranls from the "udpreceive"
\, "unpackOSC" and "routeOSC" from the mrpeach package;
#X obj 103 351 routeOSC /accelerometer /gyro;
#X obj 352 353 routeOSC /ori /acc /touch;
#X obj 591 350 routeOSC /accxyz;
#X obj 832 348 routeOSC /orientation /accelerometer /light /proximiti
/gps;
#X obj 659 428 cnv 15 400 110 empty empty empty 20 12 0 14 -204786
-66577 0;
#X text 674 443 1 find the ip address of computer;
#X text 674 498 3 set port number of "udpreceive" object \, and turn
on the toggle for spigot object/;
#X text 674 465 2 in iOS or Android apps \, set destination using ip
address and port number;
#X connect 7 0 19 0;
#X connect 8 0 34 0;
#X connect 16 0 22 0;
#X connect 17 0 25 0;
#X connect 17 0 24 0;
#X connect 18 0 21 0;
#X connect 19 0 18 0;
#X connect 20 0 22 1;
#X connect 21 0 20 0;
#X connect 22 0 23 0;
#X connect 22 0 23 1;
#X connect 24 0 28 0;
#X connect 25 0 26 0;
#X connect 26 0 30 0;
#X connect 27 0 32 0;
#X connect 28 0 27 0;
#X connect 30 0 31 1;
#X connect 31 0 33 0;
#X connect 32 0 31 0;
#X connect 33 0 16 0;
#X connect 34 0 17 0;
#X connect 41 0 38 0;
#X connect 41 1 39 0;
#X connect 41 2 40 0;
#X connect 48 0 42 0;
#X connect 48 1 43 0;
#X connect 48 2 44 0;
#X connect 52 0 4 0;
#X connect 52 1 5 0;
#X connect 52 2 6 0;
#X connect 53 0 7 0;
#X connect 53 1 8 0;
#X connect 53 2 9 0;
#X connect 55 0 81 0;
#X connect 56 0 55 1;
#X connect 57 0 82 0;
#X connect 58 0 57 1;
#X connect 59 0 83 0;
#X connect 60 0 59 1;
#X connect 61 0 84 0;
#X connect 62 0 61 1;
#X connect 63 0 54 0;
#X connect 64 0 63 1;
#X connect 74 0 75 0;
#X connect 78 0 3 0;
#X connect 78 0 79 0;
#X connect 79 0 63 0;
#X connect 79 0 55 0;
#X connect 79 0 57 0;
#X connect 79 0 59 0;
#X connect 79 0 61 0;
#X connect 81 0 52 0;
#X connect 81 1 53 0;
#X connect 82 0 41 0;
#X connect 82 1 48 0;
