#N canvas 1196 -977 654 694 10;
#X obj 22 1 cnv 15 600 120 empty empty State_Node 20 12 0 14 -204800
-66577 0;
#X obj 132 255 tgl 20 0 empty empty empty 17 7 0 10 -4032 -1 -1 0 1
;
#X obj 357 274 r input;
#X obj 102 680 s transitions;
#X obj 102 513 t b b;
#X obj 209 133 r transitions;
#X obj 209 195 t b;
#X msg 209 218 1;
#X obj 102 379 spigot;
#X msg 197 554 0;
#X text 211 8 Abstraction representing a single state node in a state
graph which implements a simple pattern recognizer.;
#X symbolatom 114 279 10 0 0 0 - - -;
#X obj 71 162 loadbang;
#X msg 189 613 start;
#X obj 163 514 t b b;
#X text 235 611 messages to transition to successor states;
#X text 231 554 leave this state by resetting state flag;
#X text 214 66 Creation args: <state-name> <input-symbol> <successor-state>
;
#X obj 71 189 symbol \$1;
#X obj 102 482 route \$2;
#X obj 102 613 symbol \$3;
#X text 305 131 receive state transition messages;
#X text 237 217 enter this state by setting state flag;
#X text 149 372 if state is active \, process input events to determine
next transition;
#X text 206 481 select possible transitions;
#X obj 102 648 list trim;
#X obj 209 158 route \$1 _reset _update;
#X obj 102 351 bng 15 250 50 0 empty empty empty 17 7 0 10 -262144
-1 -1;
#X text 130 419 store current input event;
#X msg 102 419 O;
#X obj 357 297 list prepend set;
#X obj 357 323 list trim;
#X connect 1 0 8 1;
#X connect 2 0 30 0;
#X connect 4 0 20 0;
#X connect 4 1 9 0;
#X connect 5 0 26 0;
#X connect 6 0 7 0;
#X connect 7 0 1 0;
#X connect 8 0 29 0;
#X connect 9 0 1 0;
#X connect 12 0 18 0;
#X connect 13 0 3 0;
#X connect 14 0 13 0;
#X connect 14 1 9 0;
#X connect 18 0 11 0;
#X connect 19 0 4 0;
#X connect 19 1 14 0;
#X connect 20 0 25 0;
#X connect 25 0 3 0;
#X connect 26 0 6 0;
#X connect 26 1 9 0;
#X connect 26 2 27 0;
#X connect 27 0 8 0;
#X connect 29 0 19 0;
#X connect 30 0 31 0;
#X connect 31 0 29 0;
#X coords 0 -1 1 1 85 50 2 100 250;
