#N canvas 722 22 718 856 10;
#X obj 40 57 s port-name;
#X msg 40 30 /dev/tty.usbmodemfd121;
#X obj 40 181 tgl 15 0 empty empty empty 17 7 0 10 -262144 -1 -1 1
1;
#X obj 40 252 s osc-output;
#X obj 40 111 tgl 15 0 empty empty empty 17 7 0 10 -262144 -1 -1 1
1;
#X floatatom 134 199 5 0 0 0 - - -;
#N canvas 608 52 673 665 Arduino-server 1;
#X obj 49 508 mrpeach/slipdec 65536;
#X obj 49 197 mrpeach/slipenc 65536;
#X obj 49 134 inlet;
#X obj 49 589 outlet;
#X obj 219 132 inlet;
#X msg 215 318 devices;
#X text 216 504 slipdec extracts an OSC data packet from a serial data
stream encoded using the SLIP protocol.;
#X text 211 196 slipenc encodes an OSC packet using the SLIP protocol
to delineate packet boundaries in the serial data stream. The argument
to slipenc sets a maximum packet size.;
#X text 274 314 Under OSX the Udoo SAM3X on the CN6 connector enumerates
as /dev/tty.SLAB_USBtoUART;
#X msg 217 376 close;
#X text 217 552 unpackOSC decodes the OSC data packet into a stream
of Pd messages \; see routeOSC for examples;
#X obj 49 439 comport 99 57600;
#X text 217 438 comport opens the specified serial port at the specified
baud rate when it the object is initialized \; using an invalid device
prevents it from opening the port until requestd;
#X msg 219 174 devicename \$1 \, baud 57600;
#X text 213 295 Click to print out the list of available serial devices.
;
#X text 216 357 Click to manually close the serial port.;
#X text 46 69 The left inlet receives Pd lists specifying OSC messages.
;
#X text 49 30 Subpatch to manage the OSC messaging to and from the
Arduino over a serial port.;
#X text 216 102 The right inlet receives a message with a symbol naming
the serial port.;
#X obj 219 153 list;
#X obj 49 165 osc/packOSC;
#X obj 49 550 osc/unpackOSC;
#X connect 0 0 21 0;
#X connect 1 0 11 0;
#X connect 2 0 20 0;
#X connect 4 0 19 0;
#X connect 5 0 11 0;
#X connect 9 0 11 0;
#X connect 11 0 0 0;
#X connect 13 0 11 0;
#X connect 19 0 13 0;
#X connect 20 0 1 0;
#X connect 21 0 3 0;
#X restore 40 326 pd Arduino-server;
#X text 155 317 This subpatch encapsulates the serial port protocol
for sending and receiving OSC messages to and from the Arduino.;
#X obj 139 292 r port-name;
#X obj 40 293 r osc-output;
#X text 110 140 Change state of LED on digital pin 3 once every 500
ms.;
#X obj 40 144 metro 500;
#X text 189 24 Arduino Due serial port. Change this to match the serial
port you choose in the Arduino IDE.;
#X msg 40 216 /d/3 \$1;
#X connect 1 0 0 0;
#X connect 2 0 13 0;
#X connect 2 0 5 0;
#X connect 4 0 11 0;
#X connect 8 0 6 1;
#X connect 9 0 6 0;
#X connect 11 0 2 0;
#X connect 13 0 3 0;
