#N canvas 608 22 674 720 10;
#X obj 341 924 dac~;
#X obj 341 877 freeverb~;
#X obj 326 628 osc~;
#X obj 366 628 osc~;
#X obj 406 628 osc~;
#X obj 446 628 osc~;
#X obj 486 628 osc~;
#X obj 526 628 osc~;
#X obj 327 526 r p;
#X obj 274 534 hsl 30 15 1 10 0 0 empty empty empty -2 -8 0 10 -262144
-1 -1 322 1;
#X floatatom 326 598 5 0 0 0 - - -;
#X obj 367 526 r p;
#X floatatom 366 598 5 0 0 0 - - -;
#X obj 407 526 r p;
#X floatatom 406 598 5 0 0 0 - - -;
#X obj 447 526 r p;
#X floatatom 446 598 5 0 0 0 - - -;
#X obj 487 526 r p;
#X floatatom 486 598 5 0 0 0 - - -;
#X obj 527 526 r p;
#X floatatom 526 598 5 0 0 0 - - -;
#X obj 346 734 hsl 30 15 1 10 0 0 empty empty empty -2 -8 0 10 -262144
-1 -1 0 1;
#X obj 386 734 hsl 30 15 1 10 0 0 empty empty empty -2 -8 0 10 -262144
-1 -1 0 1;
#X obj 426 734 hsl 30 15 1 10 0 0 empty empty empty -2 -8 0 10 -262144
-1 -1 0 1;
#X obj 466 734 hsl 30 15 1 10 0 0 empty empty empty -2 -8 0 10 -262144
-1 -1 0 1;
#X obj 506 734 hsl 30 15 1 10 0 0 empty empty empty -2 -8 0 10 -262144
-1 -1 0 1;
#X obj 546 734 hsl 30 15 1 10 0 0 empty empty empty -2 -8 0 10 -262144
-1 -1 0 1;
#X obj 342 758 *~;
#X obj 382 758 *~;
#X obj 422 758 *~;
#X obj 462 758 *~;
#X obj 502 758 *~;
#X obj 542 758 *~;
#X obj 326 572 *;
#X obj 366 572 *;
#X obj 406 572 *;
#X obj 446 572 *;
#X obj 486 572 *;
#X obj 526 572 *;
#X obj 342 705 delay~;
#X floatatom 341 652 5 0 0 0 - - -;
#X obj 341 679 * 44100;
#X obj 99 488 hsl 100 15 0 1024 0 0 empty empty empty 70 -8 0 10 -262144
-1 -1 0 1;
#X floatatom 182 627 5 0 0 0 - - -;
#X obj 30 518 metro 50;
#X obj 30 491 tgl 15 0 empty empty empty 17 7 0 10 -262144 -1 -1 1
1;
#X obj 97 557 +;
#X obj 97 586 / 2;
#X floatatom 96 518 5 0 0 0 - - -;
#X obj 127 557 +;
#X obj 127 586 / 2;
#X obj 157 557 +;
#X obj 157 586 / 2;
#X obj 182 652 s rawpitch;
#X obj 97 617 delta;
#X obj 97 645 abs;
#X floatatom 97 700 5 0 0 0 - - -;
#X obj 97 761 line~;
#X msg 97 729 \$1 20;
#X obj 97 787 s~ amp;
#X obj 369 800 r~ amp;
#X obj 341 801 *~;
#X obj 30 463 loadbang;
#X obj 43 762 line;
#X obj 43 786 s wet;
#X obj 491 836 r wet;
#X msg 491 860 roomsize \$1;
#X msg 442 824 wet 0.3;
#X obj 97 671 / 300;
#X obj 341 830 tanh~;
#X obj 382 705 delay~;
#X floatatom 381 652 5 0 0 0 - - -;
#X obj 381 679 * 44100;
#X obj 422 705 delay~;
#X floatatom 421 652 5 0 0 0 - - -;
#X obj 421 679 * 44100;
#X obj 462 705 delay~;
#X floatatom 461 652 5 0 0 0 - - -;
#X obj 461 679 * 44100;
#X obj 502 705 delay~;
#X floatatom 501 652 5 0 0 0 - - -;
#X obj 501 679 * 44100;
#X obj 542 705 delay~;
#X floatatom 541 652 5 0 0 0 - - -;
#X obj 541 679 * 44100;
#X obj 341 898 freeverb~;
#X obj 366 548 * 2;
#X obj 406 548 * 3;
#X obj 447 548 * 4;
#X obj 487 548 * 5;
#X obj 527 548 * 6;
#X msg 19 78 /dev/tty.usbmodem1411;
#X obj 19 130 s port-name;
#X msg 19 104 /dev/ttyACM0;
#X text 156 78 Arduino Uno on MacBook Air right-side USB port;
#X text 155 106 Arduino Uno on Raspberry Pi;
#X obj 13 -172 cnv 15 600 120 empty empty 1.c.iii.1_Sensor_to_Sound
20 12 0 14 -204800 -66577 0;
#X obj 13 -43 cnv 15 400 80 empty empty empty 20 12 0 14 -262130 -66577
0;
#X text 53 -101 Note that the Arduino communication requires the moocow
and comport libraries which are not by default included in vanilla
Pd \, so Pd-extended is recommended.;
#X msg 18 50 COM12;
#X text 153 49 Typical serial port name under Windows.;
#X msg 424 -14 close;
#X obj 423 14 s port-commands;
#X msg 422 -39 devices;
#X text 477 -14 Close the serial port.;
#X text 28 -37 Choose the appropriate serial port below to connect
to the Arduino \, or edit a message to set the Arduino serial port
defined on your particular machine. If you're not sure of the device
name format \, the [devices( button to the right will print known device
names to the console.;
#X text 477 -44 Print a list of serial ports;
#X text 476 -33 on the console.;
#X text 53 -151 Receive analog data from an Arduino and synthesize
a sound.;
#X text 53 -134 Assumes the attached Arduino is running the OneInOneOutASCII
sketch.;
#X obj 168 354 print unknown-message;
#N canvas 872 22 692 693 Arduino-server 0;
#X obj 49 186 inlet;
#X obj 121 963 outlet;
#X obj 137 216 inlet;
#X msg 325 293 devices;
#X msg 325 344 close;
#X text 179 562 comport opens the specified serial port at the specified
baud rate when it the object is initialized \; using an invalid device
prevents it from opening the port until requestd;
#X text 323 270 Click to print out the list of available serial devices.
;
#X text 324 325 Click to manually close the serial port.;
#X obj 138 278 list;
#X obj 20 9 cnv 15 800 120 empty empty Arduino_Server 20 12 0 12 -204800
-66577 0;
#X text 154 13 Subpatch to manage the messaging to and from the Arduino
OneInOneOutASCII sketch over a serial port.;
#X text 46 156 The left inlet receives Pd lists specifying messages.
;
#X msg 138 299 devicename \$1 \, baud 115200;
#X text 134 186 The middle inlet receives a message with a symbol naming
the serial port.;
#X obj 326 240 inlet;
#X text 321 219 The right inlet processes additional comport commands.
;
#X obj 50 578 comport 99 115200;
#X obj 206 856 t a;
#X obj 121 856 list prepend;
#X obj 83 728 t f f;
#X obj 121 896 spigot;
#X obj 83 763 sel 10;
#X obj 138 764 == 10;
#X obj 83 802 t b b;
#X obj 50 697 sel 13;
#X text 116 697 ignore carriage-return characters;
#X text 180 754 detect line-feed characters and trigger output of an
accumulated list of input characters;
#X text 234 857 list accumulator;
#X text 230 926 object from moocow to parse a list of input characters
into a Pd message;
#X text 149 796 two bangs: one to emit complete list \, one to reset
accumulator. Otherwise right outlet of sel just stores character.;
#X text 171 895 enable list to be emitted only when complete;
#X obj 121 931 moocow/bytes2any;
#X obj 51 395 moocow/any2bytes 80 13;
#X text 166 964 The outlet emits Pd messages;
#X text 195 392 Use the moocow library to convert an arbitrary Pd message
to an ASCII representation as a list of byte character values.;
#X text 117 655 The following graph buffers characters until a line
is received then parses it as a Pd list.;
#X connect 0 0 32 0;
#X connect 2 0 8 0;
#X connect 3 0 16 0;
#X connect 4 0 16 0;
#X connect 8 0 12 0;
#X connect 12 0 16 0;
#X connect 14 0 16 0;
#X connect 16 0 24 0;
#X connect 17 0 18 1;
#X connect 18 0 17 0;
#X connect 18 0 20 0;
#X connect 19 0 21 0;
#X connect 19 1 22 0;
#X connect 20 0 31 0;
#X connect 21 0 23 0;
#X connect 21 1 18 0;
#X connect 22 0 20 1;
#X connect 23 0 18 1;
#X connect 23 1 18 0;
#X connect 24 1 19 0;
#X connect 31 0 1 0;
#X connect 32 0 16 0;
#X restore 21 291 pd Arduino-server;
#X obj 106 258 r port-name;
#X obj 21 258 r port-output;
#X obj 53 180 tgl 15 1 empty empty empty 17 7 0 10 -262144 -1 -1 1
1;
#X obj 20 203 spigot;
#X obj 20 227 print port-output;
#X obj 20 159 r port-output;
#X obj 21 331 route ana dig clk led dbg;
#X obj 182 258 r port-commands;
#X text 75 179 Enable showing output messages;
#X text 134 288 This subpatch encapsulates the serial port protocol
for sending and receiving messages to and from the Arduino.;
#X text 62 415 Analog values range from 0 - 1024;
#X floatatom 21 417 5 0 0 0 - - -;
#X obj 21 393 route 0;
#X text 80 392 Receive message messages from analog pin 0;
#X obj 492 159 tgl 25 0 empty empty Enable_Audio 30 12 0 12 -4034 -1
-1 0 1;
#X msg 492 190 \; pd dsp \$1;
#X obj 332 163 cnv 15 150 20 empty empty empty 20 12 0 14 -4034 -66577
0;
#X text 336 164 Enable audio output -->;
#X obj 271 481 loadbang;
#X obj 256 718 loadbang;
#N canvas 0 22 421 517 pitch-conversion 0;
#X floatatom 69 146 5 0 0 0 - - -;
#X obj 69 51 ftom;
#N canvas 0 22 450 278 (subpatch) 0;
#X array array1 11 float 3;
#A 0 0 0 2 2 4 4 7 7 9 9 9;
#X coords 0 0 11 11 200 140 1 0 0;
#X restore 26 351 graph;
#X obj 249 386 listfunnel;
#X obj 249 444 unpack 1 1;
#X obj 249 473 tabwrite array1;
#X obj 249 416 list-rev;
#X obj 69 177 % 12;
#X obj 69 205 tabread array1;
#X obj 27 148 / 12;
#X obj 27 177 int;
#X obj 27 228 +;
#X floatatom 27 259 5 0 0 0 - - -;
#X obj 69 23 r rawpitch;
#X obj 27 307 s p;
#X obj 69 80 moses 10;
#X obj 27 282 mtof;
#X msg 249 357 0 0 2 2 4 4 7 7 9 9 9 9;
#X obj 27 205 * 6;
#X connect 0 0 7 0;
#X connect 0 0 9 0;
#X connect 1 0 15 0;
#X connect 3 0 6 0;
#X connect 4 0 5 0;
#X connect 4 1 5 1;
#X connect 6 0 4 0;
#X connect 7 0 8 0;
#X connect 8 0 11 1;
#X connect 9 0 10 0;
#X connect 10 0 18 0;
#X connect 11 0 12 0;
#X connect 12 0 16 0;
#X connect 13 0 1 0;
#X connect 15 1 0 0;
#X connect 16 0 14 0;
#X connect 17 0 3 0;
#X connect 18 0 11 0;
#X restore 20 913 pd pitch-conversion;
#X msg 271 506 2;
#X text 18 882 Click the subpatch to see more details of the pitch
calculation.;
#X obj 339 467 cnv 15 220 40 empty empty empty 20 12 0 14 -262130 -66577
0;
#X text 385 472 Oscillator Bank;
#X text 341 489 (try changing the slider parameters);
#X connect 1 0 85 0;
#X connect 1 1 85 1;
#X connect 2 0 39 0;
#X connect 3 0 70 0;
#X connect 4 0 73 0;
#X connect 5 0 76 0;
#X connect 6 0 79 0;
#X connect 7 0 82 0;
#X connect 8 0 33 0;
#X connect 9 0 33 1;
#X connect 9 0 86 0;
#X connect 9 0 87 0;
#X connect 9 0 88 0;
#X connect 9 0 89 0;
#X connect 9 0 90 0;
#X connect 10 0 2 0;
#X connect 11 0 34 0;
#X connect 12 0 3 0;
#X connect 13 0 35 0;
#X connect 14 0 4 0;
#X connect 15 0 36 0;
#X connect 16 0 5 0;
#X connect 17 0 37 0;
#X connect 18 0 6 0;
#X connect 19 0 38 0;
#X connect 20 0 7 0;
#X connect 21 0 27 1;
#X connect 22 0 28 1;
#X connect 23 0 29 1;
#X connect 24 0 30 1;
#X connect 25 0 31 1;
#X connect 26 0 32 1;
#X connect 27 0 61 0;
#X connect 28 0 61 0;
#X connect 29 0 61 0;
#X connect 30 0 61 0;
#X connect 31 0 61 0;
#X connect 32 0 61 0;
#X connect 33 0 10 0;
#X connect 34 0 12 0;
#X connect 35 0 14 0;
#X connect 36 0 16 0;
#X connect 37 0 18 0;
#X connect 38 0 20 0;
#X connect 39 0 27 0;
#X connect 40 0 41 0;
#X connect 41 0 39 1;
#X connect 42 0 48 0;
#X connect 43 0 53 0;
#X connect 44 0 48 0;
#X connect 45 0 44 0;
#X connect 46 0 47 0;
#X connect 47 0 46 1;
#X connect 47 0 49 0;
#X connect 47 0 54 0;
#X connect 48 0 46 0;
#X connect 49 0 50 0;
#X connect 50 0 49 1;
#X connect 50 0 51 0;
#X connect 51 0 52 0;
#X connect 52 0 51 1;
#X connect 52 0 43 0;
#X connect 54 0 55 0;
#X connect 55 0 68 0;
#X connect 56 0 58 0;
#X connect 57 0 59 0;
#X connect 58 0 57 0;
#X connect 58 0 63 0;
#X connect 60 0 61 1;
#X connect 61 0 69 0;
#X connect 62 0 45 0;
#X connect 63 0 64 0;
#X connect 65 0 66 0;
#X connect 66 0 1 0;
#X connect 67 0 1 0;
#X connect 68 0 56 0;
#X connect 69 0 1 0;
#X connect 70 0 28 0;
#X connect 71 0 72 0;
#X connect 72 0 70 1;
#X connect 73 0 29 0;
#X connect 74 0 75 0;
#X connect 75 0 73 1;
#X connect 76 0 30 0;
#X connect 77 0 78 0;
#X connect 78 0 76 1;
#X connect 79 0 31 0;
#X connect 80 0 81 0;
#X connect 81 0 79 1;
#X connect 82 0 32 0;
#X connect 83 0 84 0;
#X connect 84 0 82 1;
#X connect 85 0 0 0;
#X connect 85 1 0 1;
#X connect 86 0 34 1;
#X connect 87 0 35 1;
#X connect 88 0 36 1;
#X connect 89 0 37 1;
#X connect 90 0 38 1;
#X connect 91 0 92 0;
#X connect 93 0 92 0;
#X connect 99 0 92 0;
#X connect 101 0 102 0;
#X connect 103 0 102 0;
#X connect 111 0 118 0;
#X connect 112 0 111 1;
#X connect 113 0 111 0;
#X connect 114 0 115 1;
#X connect 115 0 116 0;
#X connect 117 0 115 0;
#X connect 118 0 124 0;
#X connect 118 5 110 0;
#X connect 119 0 111 2;
#X connect 123 0 42 0;
#X connect 124 0 123 0;
#X connect 126 0 127 0;
#X connect 130 0 133 0;
#X connect 131 0 21 0;
#X connect 131 0 22 0;
#X connect 131 0 23 0;
#X connect 131 0 24 0;
#X connect 131 0 25 0;
#X connect 131 0 26 0;
#X connect 133 0 9 0;
