#N canvas 3 22 824 981 10;
#X obj -166 -214 cnv 15 600 100 empty empty 2.a.ii.3_a-little-calculus
20 12 0 14 -204800 -66577 0;
#X obj 57 -105 cnv 15 400 120 empty empty empty 20 12 0 14 -262130
-66577 0;
#X obj -160 -94 bng 15 250 50 0 empty empty empty 17 7 0 10 -262144
-1 -1;
#X text -124 1 from the "Control" app;
#X floatatom -136 81 5 0 0 0 - - -, f 5;
#X floatatom -98 81 5 0 0 0 - - -, f 5;
#X floatatom -60 81 5 0 0 0 - - -, f 5;
#X text -122 59 x;
#X text -79 60 y;
#X text -41 60 z;
#X text 84 -67 With gesture data from a mobile phone streaming into
PureData wirelessly using OpenSoundControl \, we begin analyzing and
processing the data for richer mappings;
#X obj -138 32 unpack 1 1 1;
#X text 78 205 visualize;
#X obj 55 175 vsl 15 64 -1 1 0 0 empty empty empty 0 -9 0 10 -262144
-1 -1 3590 1;
#X obj 28 246 hsl 64 15 -1 1 0 0 empty empty empty -2 -8 0 10 -262144
-1 -1 3488 1;
#X obj -13 132 pc.scale 30 90 -1 1;
#X obj -136 133 pc.scale 30 90 -1 1;
#X text 112 134 scale input range to -1 to 1;
#X floatatom -100 295 5 0 0 0 - - -, f 5;
#N canvas 0 22 450 300 calculate-magnitude 0;
#X obj 85 98 *;
#X obj 120 98 *;
#X obj 104 132 +;
#X obj 104 166 sqrt;
#X obj 101 33 inlet;
#X obj 154 33 inlet;
#X obj 97 231 outlet;
#X connect 0 0 2 0;
#X connect 1 0 2 1;
#X connect 2 0 3 0;
#X connect 3 0 6 0;
#X connect 4 0 0 0;
#X connect 4 0 0 1;
#X connect 5 0 1 0;
#X connect 5 0 1 1;
#X restore -136 245 pd calculate-magnitude;
#X obj -134 366 signal_plot;
#N canvas 0 22 450 300 take-derivative 0;
#X obj 101 33 inlet;
#X obj 147 234 outlet;
#X obj 127 98 t float float;
#X obj 146 172 -;
#X connect 0 0 2 0;
#X connect 2 0 3 1;
#X connect 2 1 3 0;
#X connect 3 0 1 0;
#X restore 120 294 pd take-derivative;
#X obj 119 363 signal_plot;
#X obj 119 332 abs;
#X obj 396 448 > 0.3;
#X obj 396 486 sel 1;
#X obj 396 513 bng 15 250 50 0 empty empty empty 17 7 0 10 -262144
-1 -1;
#X text 440 450 detect sudden movements;
#X floatatom 435 410 5 0 0 0 - - -, f 5;
#X obj 434 343 loadbang;
#X msg 438 372 0.3;
#X text 471 410 detect sudden movements;
#X obj -129 -96 udpreceive 10000;
#X obj -129 -63 unpackOSC;
#X obj -138 -19 routeOSC /accelerometer /gryo;
#X text -129 -186 Applying calculus \, the study of how things changes
\, to sensor data;
#X connect 4 0 16 0;
#X connect 5 0 15 0;
#X connect 11 0 4 0;
#X connect 11 1 5 0;
#X connect 11 2 6 0;
#X connect 15 0 13 0;
#X connect 15 0 19 1;
#X connect 16 0 14 0;
#X connect 16 0 19 0;
#X connect 19 0 18 0;
#X connect 19 0 20 0;
#X connect 19 0 21 0;
#X connect 21 0 23 0;
#X connect 23 0 22 0;
#X connect 23 0 24 0;
#X connect 24 0 25 0;
#X connect 25 0 26 0;
#X connect 28 0 24 1;
#X connect 29 0 30 0;
#X connect 30 0 28 0;
#X connect 32 0 33 0;
#X connect 32 0 2 0;
#X connect 33 0 34 0;
#X connect 34 0 11 0;
