#N canvas 474 22 1370 995 10;
#N canvas 0 22 450 278 (subpatch) 0;
#X array \$0-myMelody 24 float 3;
#A 0 66 82 66 52 66 78 66 55 67 90 67 61 67 79 67 85 65 90 65 99 100
66 52 64;
#X coords 0 127 23 0 200 127 1 0 0;
#X restore 94 68 graph;
#X text 46 31 1;
#X obj 77 632 *~ 0.3;
#X obj 67 691 dac~;
#X obj 160 630 tgl 15 0 empty empty empty 17 7 0 10 -262144 -1 -1 1
1;
#X msg 161 668 \; pd dsp \$1;
#X text 176 629 <--- must turn on DSP for audio to work in PD;
#X text 75 32 here's our melody array:;
#X text 50 225 2;
#X text 69 225 here's our sequencer \, now put in a sub-patch;
#N canvas 0 22 948 711 sequencer 0;
#X obj 214 354 tabread \$0-myMelody;
#X floatatom 215 327 5 0 0 0 - - -, f 5;
#X floatatom 214 390 5 0 0 0 - - -, f 5;
#X obj 215 273 f;
#X obj 263 273 + 1;
#X obj 263 295 mod 24;
#X obj 214 512 osc~;
#X text 309 294 <--- don't go over 23!;
#X text 268 418 <--- change from MIDI (linear) to Hertz (log);
#X floatatom 215 463 5 0 0 0 - - -, f 5;
#X obj 214 419 mtof;
#X obj 189 108 inlet;
#X obj 303 129 inlet;
#X obj 216 574 outlet~;
#X connect 0 0 2 0;
#X connect 1 0 0 0;
#X connect 2 0 10 0;
#X connect 3 0 4 0;
#X connect 3 0 1 0;
#X connect 4 0 5 0;
#X connect 5 0 3 1;
#X connect 6 0 13 0;
#X connect 9 0 6 0;
#X connect 10 0 9 0;
#X connect 11 0 3 0;
#X connect 12 0 5 1;
#X restore 77 576 pd sequencer;
#X obj 71 386 tgl 15 0 empty empty on/off 17 7 0 10 -262144 -1 -1 1
1;
#X floatatom 271 404 5 0 0 1 rhythmic-pulse-duration_(ms) - -, f 5
;
#X floatatom 143 552 5 0 0 1 sequence_length - -, f 5;
#X text 159 576 <--- double click to see what's inside;
#X obj 72 424 metro 100;
#X obj 168 420 + 1;
#X obj 168 486 * 100;
#X floatatom 169 516 5 0 0 0 - - -, f 5;
#X obj 168 389 random 2;
#N canvas 0 22 948 711 sequencer 0;
#X obj 214 354 tabread \$0-myMelody;
#X floatatom 215 327 5 0 0 0 - - -, f 5;
#X floatatom 214 390 5 0 0 0 - - -, f 5;
#X obj 215 273 f;
#X obj 263 273 + 1;
#X obj 263 295 mod 24;
#X obj 214 512 osc~;
#X text 309 294 <--- don't go over 23!;
#X text 268 418 <--- change from MIDI (linear) to Hertz (log);
#X floatatom 215 463 5 0 0 0 - - -, f 5;
#X obj 214 419 mtof;
#X obj 189 108 inlet;
#X obj 303 129 inlet;
#X obj 216 574 outlet~;
#X connect 0 0 2 0;
#X connect 1 0 0 0;
#X connect 2 0 10 0;
#X connect 3 0 4 0;
#X connect 3 0 1 0;
#X connect 4 0 5 0;
#X connect 5 0 3 1;
#X connect 6 0 13 0;
#X connect 9 0 6 0;
#X connect 10 0 9 0;
#X connect 11 0 3 0;
#X connect 12 0 5 1;
#X restore 76 268 pd sequencer;
#X text 51 307 3;
#X text 70 307 now let's play it with some more exciting timing;
#X msg 303 353 100;
#X msg 271 352 50;
#X floatatom 168 455 5 0 0 0 - - -, f 5;
#X text 205 452 <--- sometimes 1 (short) \, sometimes 2 (long);
#X text 364 353 <--- try these;
#X msg 337 353 150;
#X connect 2 0 3 1;
#X connect 2 0 3 0;
#X connect 4 0 5 0;
#X connect 10 0 2 0;
#X connect 11 0 15 0;
#X connect 12 0 17 1;
#X connect 13 0 10 1;
#X connect 15 0 10 0;
#X connect 15 0 19 0;
#X connect 16 0 25 0;
#X connect 17 0 18 0;
#X connect 18 0 15 1;
#X connect 19 0 16 0;
#X connect 23 0 12 0;
#X connect 24 0 12 0;
#X connect 25 0 17 0;
#X connect 28 0 12 0;
